<?xml version="1.0" encoding="utf-8"?>
<!-- Generator: Adobe Illustrator 22.0.1, SVG Export Plug-In . SVG Version: 6.00 Build 0)  -->
<svg version="1.1" id="Layer_1" xmlns="http://www.w3.org/2000/svg" xmlns:xlink="http://www.w3.org/1999/xlink" x="0px" y="0px"
	 viewBox="0 0 1344.4 787.9" style="enable-background:new 0 0 1344.4 787.9;" xml:space="preserve">
<style type="text/css">
	.st0{fill:#F1F1F2;}
</style>
<g>
	<path class="st0" d="M1224,0c0,2.9,0.8,5.7,1.2,8.5c1.3,7.9,2.6,15.8,4,23.7c1.3,7.6,2.6,15.2,3.9,22.9c1.3,7.6,2.5,15.3,3.8,22.9
		c1.3,7.6,2.6,15.2,3.9,22.9c1.3,7.5,2.5,15,3.8,22.5c1.3,7.6,2.6,15.3,3.9,22.9c1.3,7.6,2.6,15.3,3.9,22.9
		c1.3,7.6,2.6,15.3,3.8,22.9c1.3,7.8,2.6,15.5,3.9,23.3c1.3,7.6,2.6,15.3,3.9,22.9c0.9,5.2,1.8,10.5,2.6,15.7
		c0.1,0.8-0.2,1.4-0.8,1.8c-3.6,2.6-7.3,5.1-10.8,7.8c-12.2,9.4-23.4,19.8-34,31c-26.6,28.1-48.1,59.8-65,94.6
		c-12.8,26.4-22.5,53.9-29.4,82.4c-2.8,11.4-5.2,22.9-7,34.5c-0.2,1.3-0.4,2.5-1.1,3.8c-0.5,0.1-1.1,0.2-1.6,0.2
		c-5.3,0-10.6,0-15.9,0c-0.4,0-0.9-0.1-1.2-0.2c-0.2-0.1-0.5-0.4-0.5-0.6c-0.1-1.6-0.2-3.1-0.2-4.7c0-53.8,0-107.5,0-161.3
		c0-27.5,0-55,0-82.6c0-1.4,0-2.9,0.1-4.3c0-0.5,0.6-1.1,1.1-1.2c0.7-0.1,1.4-0.3,2.1-0.4c11-1.4,20.1-9.2,23.9-18.7
		c7.1-17.8-3.9-37.1-21.9-41c-14.9-3.2-31.2,5.6-35.6,21.7c-4.2,15.4,4.3,31.8,20.1,36.9c1.6,0.5,3.3,1,5,1.1c0.7,0,1.4,0.2,2.1,0.4
		c0.3,0.1,0.7,0.5,0.8,0.9c0.2,0.4,0.2,0.8,0.2,1.3c0,1.3,0,2.6,0,3.9c0,80.9,0,161.7,0,242.6c0,1.7-0.1,3.4-0.1,5.2
		c0,0.5-0.6,1.1-1.1,1.1c-0.7,0-1.4,0.1-2.1,0.1c-4.4,0-8.9,0-13.3,0c-0.7,0-1.4,0-2.1-0.1c-0.6,0-1.1-0.5-1.2-1
		c-0.8-4.1-1.6-8.2-2.4-12.2c-3.6-17.6-8.4-34.8-14-51.8c-8.1-24.7-18.1-48.6-30.1-71.6c-10.6-20.2-22.7-39.5-36.9-57.5
		c-13.4-17.1-28.3-32.7-45.2-46.5c-4.9-4-9.9-7.8-15-11.5c-0.7-0.5-1.4-1-2.1-1.5c-1.5-0.8-1.8-2.1-1.5-3.6c0.5-2.7,0.9-5.4,1.3-8.1
		c1-6.4,2.1-12.7,3.1-19.1c1.3-7.6,2.5-15.3,3.8-22.9c1-6.1,2-12.2,3-18.2c1.3-8.1,2.7-16.1,4-24.2c1-6.1,2-12.2,3-18.2
		c1-5.9,1.9-11.9,2.9-17.8c1-6.2,2.1-12.4,3.1-18.7c1.3-7.9,2.6-15.8,3.9-23.7c1-5.9,1.9-11.9,2.9-17.8c1-6.4,2.1-12.7,3.1-19.1
		c1.3-7.8,2.5-15.6,3.8-23.3c1-6.2,2.1-12.4,3.1-18.7c0.2-1,0.2-2,0.3-3C1055.4,0,1139.7,0,1224,0z"/>
	<path class="st0" d="M1236.9,787.9c-0.5-0.2-1-0.6-1.5-0.7c-2.3-0.4-4.5-0.7-6.8-0.9c-7.7-0.7-15.3-2.2-22.7-4.5
		c-4.9-1.5-9.7-3.4-14.3-5.9c-13-6.9-22.5-17-28.7-30.3c-2.6-5.5-4.4-11.2-5.8-17c-2-8.1-3.4-16.2-4.5-24.5
		c-1-7.7-1.8-15.4-2.1-23.1c-0.4-8-0.4-16-0.5-24.1c0-1.7,0.1-3.4,0.1-5.2c0.1-9.3,0.7-18.6,1.7-27.9c0.8-7.4,2-14.8,3.6-22
		c1.1-4.7,2.5-9.4,4.2-14c7.8-20.4,21.9-34.6,42.1-42.7c7.5-3,15.2-4.9,23.2-6.1c10.1-1.6,20.2-1.9,30.4-1.5
		c11.8,0.5,23.4,2.2,34.6,5.9c4.8,1.6,9.4,3.5,13.8,5.9c16,8.6,27,21.5,32.9,38.6c3,8.7,5.1,17.6,6.4,26.7c0.4,3,0.8,6,0.8,9
		c0,1.4,0.1,2.9,0.8,4.2c0,21.5,0,43,0,64.5c-0.7,1.3-0.7,2.7-0.8,4.2c-0.1,2.3-0.2,4.6-0.5,6.9c-0.4,3-0.8,6-1.4,8.9
		c-1.5,8.5-3.4,16.8-6.1,25c-5.5,16.5-15.7,29.1-30.9,37.5c-6.2,3.4-12.7,6-19.5,7.8c-6.5,1.8-13.1,3-19.8,3.6
		c-2.1,0.2-4.3,0.5-6.4,0.9c-0.5,0.1-1,0.5-1.5,0.7C1250.7,787.9,1243.8,787.9,1236.9,787.9z M1278.1,664.2
		c0-13.2-0.5-24.7-1.5-36.3c-0.4-4.7-1-9.4-1.9-14c-0.9-4.6-2.6-8.8-5.2-12.6c-2.1-3-4.8-5.3-8.2-6.7c-2.4-1-4.9-1.6-7.5-1.9
		c-4.1-0.4-8.3-0.4-12.4,0c-7.3,0.8-13,4.2-16.6,10.8c-1.7,3-3.1,6.1-3.7,9.6c-0.4,2.5-1,5.1-1.3,7.6c-0.9,7.7-1.7,15.4-2,23.1
		c-0.1,1.9-0.1,3.7-0.2,5.6c-0.4,5.7-0.5,11.4-0.3,17.2c0.2,9.4,0.4,18.9,1.4,28.3c0.3,3.4,0.6,6.8,1.1,10.2
		c0.5,3.7,1.2,7.3,2.3,10.9c1,3.4,2.6,6.3,4.8,9.1c2.8,3.6,6.6,5.9,11.1,6.9c4.9,1.1,9.9,1.2,15,0.7c2.6-0.3,5.1-0.7,7.6-1.5
		c6.3-2.1,10.6-6.2,12.5-12.5c0.7-2.3,1.3-4.7,1.8-7.1c1.4-6.6,2-13.3,2.4-20C1277.7,681.9,1278.3,672.3,1278.1,664.2z"/>
	<path class="st0" d="M0,439.5c0.3-0.3,0.6-0.6,0.8-1c0.4-1.2,0.6-2.5,0.7-3.8c0.1-2.1,0.2-4.3,0.3-6.4c0.4-6.3,1.1-12.6,2.5-18.7
		c0.8-3.5,1.8-6.9,3.4-10.2c0.9-1.8,1.8-3.6,2.9-5.2c3.5-5.2,8.3-8.7,14.3-10.4c5.7-1.6,11.5-2.2,17.4-1.4c2.4,0.3,4.8,0.7,7.1,1.5
		c6.4,2.1,11.3,6.1,14.7,11.9c2.1,3.5,3.4,7.3,4.3,11.2c1.2,5,1.6,10.2,1.8,15.3c0,0.3,0,0.6-0.1,0.9c0,0.5-0.6,1.1-1.1,1.2
		c-0.3,0-0.6,0.1-0.8,0.1c-3.3,0-6.6,0-9.9,0c-0.3,0-0.6-0.1-0.8-0.1c-0.5-0.1-1-0.6-1.1-1.2c-0.2-2.4-0.4-4.9-0.6-7.3
		c-0.2-2.7-0.8-5.4-1.6-8c-0.1-0.4-0.2-0.8-0.4-1.2c-2.7-7.1-7.9-10.7-15.4-11c-2.4-0.1-4.8,0.1-7.3,0.6c-4.7,1-8,3.7-10.2,7.8
		c-1.4,2.7-2.3,5.6-2.9,8.5c-1,4.6-1.5,9.3-1.7,14.1c-0.7,13.8-0.7,27.5,0,41.3c0.2,4.6,0.7,9.1,1.7,13.6c0.5,2.1,1,4.2,1.8,6.2
		c2.4,6.5,7.2,10.2,14.1,10.9c3.3,0.4,6.6,0.3,9.8-0.6c7.1-2,11.5-6.7,13.5-13.7c0.2-0.8,0.3-1.7,0.3-2.6c0-8.3,0-16.6,0-24.9
		c0-0.4-0.1-0.9-0.1-1.3c-0.1-0.6-0.6-1.1-1.1-1.2c-1-0.1-2-0.1-3-0.1c-5.6,0-11.2,0-16.8,0c-0.9,0-1.7-0.1-2.6-0.2
		c-0.2,0-0.4-0.3-0.6-0.6c-0.1-0.1-0.1-0.3-0.1-0.4c0-3.4,0-6.9,0-10.3c0-0.7,0.7-1.3,1.4-1.3c0.7,0,1.4-0.1,2.1-0.1
		c10,0,20.1,0,30.1,0c0.9,0,1.7,0,2.6,0.2c0.3,0.1,0.7,0.5,0.9,0.8c0.2,0.4,0.2,0.8,0.2,1.3c0,1.1,0,2.3,0,3.4
		c0.1,19.8,0.1,39.6,0.2,59.3c0,0.4,0,0.9,0,1.3c0,1.8-0.5,2.2-2.3,2.3c-2.1,0-4.3,0-6.5,0c-0.6,0-1.1-0.2-1.7-0.3
		c-0.8-2.4-0.7-4.9-1-7.3c0-0.2-0.2-0.5-0.4-0.7c-0.1-0.1-0.3-0.1-0.4-0.1c-0.5,0.5-1.1,1-1.5,1.5c-3,3.3-6.7,5.4-10.9,6.7
		c-2.3,0.7-4.7,1.3-7.2,1.3c-2.6,0-5.2,0-7.7-0.1c-3.2-0.1-6.2-0.9-9.2-2c-4.1-1.6-7.5-4.1-10.2-7.6c-2.1-2.7-3.7-5.8-5-9
		c-1.7-4.3-2.8-8.7-3.5-13.3c-1-6.1-1.7-12.2-1.9-18.4c-0.1-1.9,0-3.7-0.5-5.6c-0.2-0.7-0.4-1.4-1-1.8C0,448.7,0,444.1,0,439.5z"/>
	<path class="st0" d="M1050.8,783.3c-0.5,0.1-0.9,0.2-1.3,0.2c-4.1,0.2-63.9,0-66.6-0.1c-0.8-0.4-1.1-1.3-1.4-2.1
		c-2.9-8.1-5.8-16.2-8.7-24.3c-7-19.5-14-39.1-21-58.6c-0.5-1.3-1-2.7-1.6-4.1c-0.6-0.1-1.2-0.3-1.7-0.3c-7.5,0-14.9,0-22.4,0
		c-0.4,0-0.9,0-1.3,0.2c-0.3,0.2-0.7,0.5-0.8,0.9c-0.1,1-0.2,2-0.2,3c0,4.9,0,9.7,0,14.6c0,21.8,0,43.6,0,65.4
		c0,1.4-0.1,2.9-0.1,4.3c0,0.5-0.6,1-1.1,1.1c-1.1,0-2.3,0.1-3.4,0.1c-5,0-10,0-15,0c-13.8,0-27.5,0-41.3,0c-4.1,0-4.1,0.3-4.1-3.9
		c0-0.9,0-1.7,0-2.6c0-76.7,0-153.4,0-230c0-1.7,0.1-3.4,0.1-5.2c0-0.4,0.7-1.1,1.2-1.1c1.6,0,3.1-0.1,4.7-0.1c26.5,0,53,0,79.5,0
		c8.9,0,17.8,0,26.7,0c3.6,0,7.2,0.1,10.7,0.3c7.5,0.3,14.8,1.8,21.8,4.4c2.3,0.8,4.5,1.8,6.7,2.9c9.5,4.8,16.7,12,21.7,21.4
		c3.4,6.5,5.7,13.4,7.1,20.7c2.1,10.9,2.7,21.9,2,32.9c-0.3,5.7-0.9,11.4-2,17.1c-1.1,5.8-2.8,11.4-5.2,16.8
		c-1.9,4.4-4.4,8.3-7.6,11.9c-3.4,3.9-7.5,7.1-12.3,9.2c-0.4,0.2-0.8,0.3-1.2,0.5c-1.3,0.6-1.6,1.1-1.1,2.3c0.3,0.9,0.7,1.9,1.1,2.8
		c4.3,11.1,8.6,22.2,12.9,33.3c8,20.6,15.9,41.1,23.9,61.7c0.4,1.1,0.9,2.1,1.2,3.2C1050.9,782.4,1050.8,782.9,1050.8,783.3z
		 M924.9,620c0,3,0,6,0,9c0,4,0,8,0,12c0,0.7,0.1,1.4,0.3,2.1c0,0.2,0.4,0.5,0.6,0.6c0.8,0.1,1.7,0.2,2.6,0.2
		c7.3-0.1,14.6-0.2,21.9-0.3c2.9,0,5.7-0.1,8.6-0.1c2.8,0,5.3-0.9,7.8-2.2c2.5-1.3,4.4-3.2,5.5-5.8c0.6-1.4,1.2-2.9,1.7-4.4
		c2.4-7.5,1.9-15,0.1-22.5c-1.6-6.5-5.9-10.2-12.3-11.8c-2.1-0.5-4.2-0.7-6.4-0.7c-8.7,0-17.5,0-26.2,0c-0.7,0-1.4,0-2.1,0
		c-1.3,0-1.8,0.6-1.9,1.8c0,1,0,2,0,3C924.9,607.4,924.9,613.7,924.9,620z"/>
	<path class="st0" d="M401.7,783.2c-0.3,0.1-0.5,0.3-0.8,0.3c-22.1,0-44.1,0-66.2,0c-0.4,0-0.8-0.2-1.3-0.3
		c-0.8-1.1-1.1-2.3-1.5-3.5c-8.9-24.8-17.8-49.6-26.7-74.4c-1.1-3.1-2.2-6.2-3.4-9.3c-0.2-0.6-0.6-1.2-1-1.9c-1,0-1.8-0.1-2.7-0.1
		c-6.7,0-13.5,0-20.2,0c-0.6,0-1.1,0-1.7,0.1c-0.6,0-1.1,0.5-1.2,1c-0.1,1.6-0.1,3.1-0.1,4.7c0,25.9,0,51.9,0,77.8
		c0,1.4,0,2.9-0.1,4.3c0,1-0.6,1.5-1.7,1.5c-1,0-2,0-3,0c-18.6,0-37.3,0-55.9,0c-1,0-2,0-3,0c-0.8,0-1.4-0.5-1.4-1.3
		c0-0.4-0.1-0.9-0.1-1.3c0-1.1,0-2.3,0-3.4c0-77,0-153.9,0-230.9c0-1.6,0.1-3.1,0.1-4.7c0-0.5,0.6-1,1.1-1.1
		c0.7-0.1,1.4-0.1,2.1-0.1c1.9,0,3.7,0,5.6,0c34.7,0,69.4,0,104.1,0c3.9,0,7.7,0,11.6,0.4c8.9,0.7,17.5,2.7,25.6,6.6
		c10,4.8,17.6,12.1,22.8,22c3.1,5.9,5.2,12.1,6.6,18.5c2,9,2.7,18.1,2.7,27.3c0,5.9-0.3,11.8-1,17.6c-1,8-2.8,15.8-6,23.2
		c-2.2,5.2-5.2,9.9-9.1,14c-3.2,3.3-6.9,6-11.1,8c-0.6,0.3-1.3,0.6-2,0.9c-0.5,0.2-0.7,0.9-0.5,1.5c0.3,0.9,0.7,1.9,1.1,2.8
		c7.1,18.3,14.1,36.6,21.2,54.9c5.4,14,10.9,28,16.3,42.1C401.5,781.3,402,782.2,401.7,783.2z M275.9,619.9c0,6.4,0,12.9,0,19.3
		c0,1.1,0.1,2.3,0.1,3.4c0,0.5,0.6,1.2,1.1,1.2c1,0,2,0.1,3,0.1c9.6-0.1,19.2-0.3,28.7-0.4c0.9,0,1.7,0,2.6-0.1
		c5.5-1,9.9-3.5,12.1-9c1.2-3.1,2.1-6.2,2.4-9.5c0.5-5.3,0.2-10.6-1-15.8c-1.6-6.6-5.9-10.6-12.4-12.2c-2.1-0.5-4.2-0.7-6.4-0.7
		c-8.7,0-17.5,0-26.2,0c-0.7,0-1.4,0-2.1,0c-1.3,0-1.8,0.6-1.9,1.8c0,1.1,0,2.3,0,3.4C275.9,607.6,275.9,613.8,275.9,619.9z"/>
	<path class="st0" d="M682.9,662.2c0-38.4,0-76.8,0-115.3c0-7.1-0.9-6.2,6.1-6.2c48.6,0,97.2,0,145.8,0c1.6,0,3.2,0,4.7,0.1
		c0.7,0,1.3,0.7,1.4,1.4c0,1,0.1,2,0.1,3c0,15.8,0,31.5,0,47.3c0,1.1-0.1,2.3-0.1,3.4c0,0.4-0.7,1.1-1.2,1.1c-1.4,0-2.9,0.1-4.3,0.1
		c-26.9,0-53.9,0-80.8,0c-1.4,0-2.9,0.1-4.3,0.1c-0.5,0-1.1,0.6-1.1,1.1c-0.1,0.6-0.1,1.1-0.1,1.7c0,10.3,0,20.6,0,31
		c0,0.6,0.1,1.1,0.1,1.7c0,0.6,0.5,1.1,1,1.2c1.4,0.1,2.9,0.1,4.3,0.1c25.4,0,50.7,0,76.1,0c1.4,0,2.9,0,4.3,0
		c1.2,0,1.7,0.6,1.8,1.9c0,0.7,0,1.4,0,2.1c0,15.6,0,31.2,0,46.9c0,4.2,0,4.1-4,4.1c-24.7,0-49.3,0-74,0c-1.6,0-3.2,0-4.7,0
		c-5.3,0-5-0.4-5,4.8c0,9.7,0,19.5,0,29.2c0,0.9,0,1.7,0,2.6c0,1.7,0.4,2.1,1.9,2.1c1.3,0,2.6,0,3.9,0c16.5,0,33,0,49.5,0
		c11.2,0,22.4,0,33.5,0c4,0,4.1,0,4.1,4c0,15.9,0,31.8,0,47.7c0,0.9,0,1.7-0.1,2.6c0,0.7-0.6,1.3-1.4,1.3c-1.1,0-2.3,0-3.4,0
		c-49.7,0-99.5,0-149.2,0c-0.9,0-1.7,0-2.6,0c-1.9,0-2.2-0.3-2.2-2.3c0-1.4,0-2.9,0-4.3C682.9,738.8,682.9,700.5,682.9,662.2z"/>
	<path class="st0" d="M160.4,637.9c-9.2,0-18.3,0-27.5,0c-1.3,0-2.6-0.1-3.9-0.1c-0.7,0-1.3-0.7-1.3-1.4c-0.1-1.9-0.2-3.7-0.2-5.6
		c-0.1-5.3-0.8-10.6-1.9-15.8c-0.4-2.1-1-4.2-1.7-6.2c-2.1-6.1-6.3-10.1-12.4-12.1c-2.3-0.7-4.7-1.3-7.1-1.4c-2.3-0.1-4.6-0.1-6.9,0
		c-2.6,0-5.1,0.7-7.6,1.5c-7,2.3-11.6,7.2-14.1,14c-1.3,3.5-2,7.2-2.6,10.9c-1,6.2-1.6,12.5-2,18.8c-0.7,10.2-0.7,20.3-0.6,30.5
		c0.1,9.7,0.7,19.5,1.7,29.2c0.5,4.4,1.2,8.8,2.4,13.1c0.8,2.8,2,5.4,3.6,7.8c3.3,4.9,7.7,8,13.4,9.4c6.1,1.5,12.2,1.3,18.3-0.1
		c1.8-0.4,3.5-1.2,5.2-2.1c4.3-2.4,7.3-5.9,8.8-10.7c1.1-3.4,1.8-6.9,2.4-10.5c0.8-5,1.2-10,1.5-15c0-0.7,0.1-1.4,0.3-2.1
		c0.1-0.2,0.4-0.4,0.6-0.6c0.2-0.1,0.5-0.2,0.8-0.2c1.3,0,2.6,0,3.9,0c18.2,0,36.4,0,54.6,0c1.4,0,2.9,0.1,4.3,0.1
		c0.5,0,1,0.6,1.1,1.2c0,0.4,0.1,0.9,0.1,1.3c-0.1,4.9-0.1,9.7-0.6,14.6c-0.4,4.1-0.7,8.3-1.2,12.4c-0.9,8-2.9,15.8-5.9,23.2
		c-5.4,13-14.1,23.2-26,30.6c-7.7,4.8-16.1,8.1-24.9,10.3c-8.1,2-16.3,3.1-24.6,3.6c-8.3,0.5-16.6,0.4-24.9-0.2
		c-11.6-0.9-23-3.1-33.8-7.6c-6.3-2.6-12.1-5.9-17.4-10.1c-8.9-7-15.2-15.9-19.8-26.1c-3-6.7-5-13.7-6.7-20.8
		c-2.2-9.5-3.6-19.1-4.5-28.8c-1-10.6-1.6-21.1-1.5-31.8c0-9.2,0.6-18.3,1.5-27.5c0.7-6.9,1.6-13.7,2.9-20.4
		c1.2-6.5,2.7-12.9,4.9-19.1c1.3-3.7,2.8-7.2,4.8-10.6c0.6-1,1.1-2,1.6-3.1c7.1-15.4,18.6-26.2,34.1-33c6.3-2.8,12.9-4.7,19.6-6.1
		c10.4-2.2,21-2.8,31.6-2.7c3.2,0,6.3,0,9.5,0.2c11.9,0.7,23.6,2.6,34.9,6.8c3.9,1.5,7.7,3.2,11.3,5.3c13.1,7.5,22.2,18.3,27.6,32.4
		c2,5.4,3.3,11,4.3,16.6c0.9,5.1,1.5,10.2,2,15.3c0.6,6.6,0.7,13.2,1,19.7c0,0.4,0,0.9,0,1.3c0,1.3-0.6,1.9-1.7,2
		c-1.3,0-2.6,0-3.9,0C178.4,637.9,169.4,637.9,160.4,637.9z"/>
	<path class="st0" d="M549.4,690.3c0-28.7,0-57.3,0-86c0-1.3,0-2.6,0-3.9c0-2.3-0.3-2.5-2.4-2.6c-1.1,0-2.3,0-3.4,0
		c-13.9,0-27.8,0-41.7,0c-1.3,0-2.6,0-3.9,0c-0.9,0-1.5-0.6-1.5-1.7c0-0.7,0-1.4,0-2.1c0-16.3,0-32.7,0-49c0-1,0.1-2,0.1-3
		c0-0.5,0.7-1,1.2-1.1c0.4,0,0.9-0.1,1.3-0.1c1.1,0,2.3,0,3.4,0c54.2,0,108.3,0,162.5,0c6.5,0,5.8-0.5,5.9,5.7c0,15.3,0,30.7,0,46
		c0,1.4-0.1,2.9-0.1,4.3c0,0.5-0.6,1-1.1,1.1c-1,0-2,0.1-3,0.1c-4.7,0-9.5,0-14.2,0c-10.2,0-20.3,0-30.5,0c-1.3,0-2.6,0.1-3.9,0.1
		c-0.5,0-0.8,0.4-0.9,0.8c-0.1,0.4-0.2,0.8-0.2,1.3c0,1.4,0,2.9,0,4.3c0,57.7,0,115.5,0,173.2c0,1.6,0,3.1-0.1,4.7
		c0,0.8-0.6,1.2-1.4,1.3c-0.7,0-1.4,0-2.1,0c-20.1,0-40.1,0-60.2,0c-0.9,0-1.7,0-2.6-0.1c-0.3-0.1-0.7-0.5-0.9-0.8
		c-0.2-0.4-0.2-0.8-0.2-1.3c0-1.4,0-2.9,0-4.3C549.4,748.2,549.4,719.2,549.4,690.3z"/>
	<path class="st0" d="M1064.2,662.3c0-38.5,0-77.1,0-115.6c0-1.6,0.1-3.1,0.1-4.7c0-0.5,0.7-1.1,1.1-1.1c0.9-0.1,1.7-0.1,2.6-0.1
		c20.5,0,41,0,61.5,0c1,0,2,0.1,3,0.3c0.2,0,0.5,0.3,0.6,0.6c0.2,0.4,0.3,0.8,0.3,1.2c0,1.1,0,2.3,0,3.4c0,77.4,0,154.7,0,232.1
		c0,1.1,0,2.3,0,3.4c0,1.3-0.5,1.7-1.9,1.8c-1,0-2,0-3,0c-19.8,0-39.5,0-59.3,0c-5.3,0-4.9,0.5-4.9-4.8
		C1064.2,740,1064.2,701.2,1064.2,662.3z"/>
	<path class="st0" d="M415.2,662.4c0-38.5,0-77.1,0-115.6c0-1.6,0.1-3.1,0.1-4.7c0-0.6,0.5-1.1,1-1.2c1-0.1,2-0.1,3-0.2
		c20.2,0,40.4,0,60.6,0c0.9,0,1.7,0,2.6,0.1c1.1,0.1,1.6,0.6,1.7,1.5c0,1.1,0.1,2.3,0.1,3.4c0,77.7,0,155.3,0,233
		c0,5.4,0.5,4.9-4.8,4.9c-19.8,0-39.5,0-59.3,0c-5.4,0-4.9,0.5-4.9-4.7c0-12.6,0-25.2,0-37.8C415.2,714.8,415.2,688.6,415.2,662.4z"
		/>
	<path class="st0" d="M508.8,446.5c0-18.9,0-37.8,0-56.7c0-1.4,0-2.9,0-4.3c0.1-1.7,0.5-1.9,2.2-2c0.3,0,0.6,0,0.9,0
		c10.6,0,21.2,0,31.8,0c3,0,6,0.3,8.9,1c3.1,0.7,6,1.8,8.8,3.4c4.2,2.4,7.4,5.8,9.5,10.2c1.8,3.6,2.9,7.5,3.5,11.4
		c0.5,3.2,0.9,6.5,1,9.8c0.7,17.9,0.6,35.8-0.1,53.7c-0.2,4.4-0.7,8.8-1.6,13.2c-0.8,3.7-2.1,7.1-4,10.4
		c-4.2,7.1-10.5,11.1-18.6,12.6c-3.1,0.6-6.2,0.8-9.4,0.8c-9.5-0.1-18.9,0-28.4,0c-1.1,0-2.3,0-3.4-0.1c-0.6,0-1-0.5-1.1-1.1
		c-0.1-0.6-0.1-1.1-0.1-1.7c0-1.1,0-2.3,0-3.4C508.8,484.6,508.8,465.5,508.8,446.5z M522.9,446.5c0,15,0,30.1,0,45.1
		c0,1.3,0,2.6,0.1,3.9c0,0.5,0.6,1.1,1.1,1.2c0.1,0,0.3,0.1,0.4,0.1c6.2,0,12.3,0.1,18.5,0c2.3,0,4.6-0.4,6.7-1.2
		c4.9-1.8,8.3-5,9.7-10.1c0.7-2.6,1.2-5.3,1.4-8c0.3-5,0.7-10,0.7-15c0.1-11.8,0.1-23.5,0.1-35.3c0-3.9-0.4-7.7-0.8-11.6
		c-0.4-3-1.2-5.9-2.3-8.7c-1.7-4.3-4.8-7-9.1-8.6c-2.7-1-5.6-1.4-8.4-1.5c-5.3-0.1-10.6,0-15.9,0c-0.3,0-0.6,0.1-0.9,0.1
		c-0.5,0.1-1.1,0.6-1.1,1.1c-0.1,1.3-0.1,2.6-0.1,3.9C522.9,416.7,522.9,431.6,522.9,446.5z"/>
	<path class="st0" d="M808.2,453.6c-0.4-0.1-0.8-0.2-1.2-0.2c-6.2,0-12.3,0-18.5,0c-0.4,0-0.9,0.1-1.3,0.2c-0.2,0.1-0.5,0.4-0.5,0.6
		c-0.1,1.4-0.2,2.8-0.2,4.3c0,15.3,0,30.7,0,46c0,1.4-0.1,2.9-0.1,4.3c0,0.5-0.6,1.1-1.1,1.2c-1.6,0-3.1,0.1-4.7,0.1
		c-7.1,0-7.3,0-7.5-0.6c-0.9-2.3-0.4-4.8-0.4-7.2c0-37.5,0-75.1,0-112.6c0-1.6,0-3.1,0.1-4.7c0-0.7,0.7-1.3,1.4-1.3c1,0,2-0.1,3-0.1
		c11,0,22.1,0,33.1,0c2.9,0,5.7,0.1,8.5,0.8c5.9,1.5,10.2,5,13,10.3c1.8,3.5,2.9,7.2,3.4,11c1.2,8.6,1.2,17.1,0,25.7
		c-0.3,2.1-0.8,4.2-1.4,6.3c-1.7,5.4-4.8,9.7-10,12.3c-1.3,0.6-1.3,0.9-0.9,2.4c2,6.1,4,12.3,6,18.4c3.8,11.6,7.6,23.1,11.3,34.7
		c0.4,1.2,0.7,2.5,1,3.7c0,0.2-0.2,0.5-0.4,0.6c-0.2,0.1-0.5,0.2-0.8,0.2c-3.7,0-7.4,0-11.2,0c-1,0-1.6-0.6-1.9-1.4
		c-0.7-1.9-1.3-3.8-1.9-5.7c-4.9-14.8-9.8-29.6-14.7-44.4C809.6,456.8,809.2,455.1,808.2,453.6z M786.7,418.3c0,6.2,0,12.3,0,18.5
		c0,1,0.1,2,0.2,3c0,0.2,0.3,0.5,0.6,0.6c0.5,0.1,1.1,0.2,1.7,0.2c6.6,0,13.2-0.1,19.8-0.1c0.6,0,1.1,0,1.7,0c1.6,0,3.1-0.5,4.6-1.2
		c2.2-1,3.7-2.6,4.4-5c0.3-1.1,0.6-2.2,0.8-3.3c0.9-6.3,1.1-12.6,0.6-18.9c-0.2-1.9-0.3-3.7-0.5-5.6c-0.8-5.3-4.2-8.9-9.4-9.8
		c-1-0.2-2-0.2-3-0.2c-6.3,0-12.6,0-18.9,0c-0.6,0-1.1,0.1-1.7,0.2c-0.2,0.1-0.5,0.3-0.6,0.6c-0.1,0.8-0.2,1.7-0.2,2.6
		C786.7,406,786.7,412.1,786.7,418.3z"/>
	<path class="st0" d="M153.1,509.8c-4.5,0.3-8.9,0.1-13.1,0.1c-1.1-1.1-1.3-2.2-1.7-3.3c-2.8-8.6-5.7-17.1-8.5-25.7
		c-2.8-8.3-5.5-16.6-8.3-24.9c-0.2-0.7-0.4-1.4-0.8-2c-0.2-0.3-0.6-0.6-1-0.7c-0.4-0.1-0.8-0.1-1.3-0.1c-5.9,0-11.7,0-17.6,0
		c-0.3,0-0.6,0-0.9,0.1c-0.6,0-1.1,0.5-1.1,1c-0.1,1.4-0.1,2.9-0.1,4.3c0,15.2,0,30.4,0,45.6c0,1.3,0,2.6,0,3.9
		c0,1.3-0.5,1.8-1.9,1.8c-3.4,0-6.9,0-10.3,0c-1,0-1.5-0.6-1.6-1.6c0-1.1-0.1-2.3-0.1-3.4c0-38.8,0-77.7,0-116.5
		c0-5.3-0.5-4.9,4.8-4.9c11,0,22.1,0,33.1,0c2.9,0,5.7,0.2,8.5,1c5.4,1.5,9.5,4.6,12.2,9.5c1.6,2.8,2.7,5.7,3.3,8.8
		c0.5,2.5,0.9,5.1,1.1,7.7c0.4,5.3,0.3,10.6,0,15.9c-0.2,3.6-0.8,7.1-1.7,10.6c-1,3.7-2.8,6.9-5.5,9.6c-1.3,1.3-2.8,2.4-4.5,3.3
		c-1.4,0.7-1.6,1.2-1.1,2.7c1.8,5.6,3.6,11.2,5.4,16.7c4,12.3,8,24.5,12,36.8c0.3,0.8,0.5,1.6,0.7,2.5
		C153.3,508.8,153.2,509.3,153.1,509.8z M98.9,418.5C98.9,418.5,98.9,418.5,98.9,418.5c0,6,0,12,0,18.1c0,1,0,2,0.2,3
		c0,0.3,0.5,0.7,0.8,0.9c0.4,0.2,0.8,0.2,1.3,0.2c6.9,0,13.8-0.1,20.6-0.1c0.6,0,1.2,0,1.7-0.1c5.4-0.8,8.2-3.4,9-8.3
		c0.4-2.7,0.9-5.4,0.9-8.1c0-4.4,0-8.9-0.2-13.3c-0.1-1.7-0.3-3.4-0.7-5.1c-0.9-4.3-3.4-7.1-7.7-8.4c-1.5-0.5-3.1-0.6-4.7-0.6
		c-6.2,0-12.3,0-18.5,0c-0.6,0-1.2,0-1.7,0.1c-0.4,0.1-0.8,0.4-0.9,0.8c-0.2,0.7-0.2,1.4-0.2,2.1C98.9,405.8,98.9,412.2,98.9,418.5z
		"/>
	<path class="st0" d="M393.1,446.1c0,7.3-0.5,14.6-1,21.9c-0.5,6.4-1.4,12.8-3.3,19c-1.1,3.6-2.5,7-4.4,10.2
		c-4.2,7-10.3,11.4-18.4,12.9c-7.7,1.4-15.4,1.5-22.9-0.9c-8.2-2.5-13.9-7.7-17.3-15.5c-1.9-4.2-3.1-8.6-3.9-13.1
		c-1-5.5-1.7-11-2-16.6c-0.3-5.6-0.6-11.2-0.6-16.7c-0.1-7.3,0.3-14.6,0.9-21.9c0.5-6.6,1.5-13.1,3.3-19.4c0.5-1.8,1.1-3.6,1.8-5.3
		c2.8-7.2,7.8-12.3,14.8-15.3c3.3-1.4,6.7-2.3,10.3-2.7c4.5-0.5,8.9-0.4,13.3,0.2c4.1,0.6,8.1,1.8,11.7,3.9
		c5.4,3.1,9.2,7.6,11.7,13.3c1.6,3.7,2.7,7.6,3.4,11.5c1,5.5,1.7,11,1.9,16.6C392.6,434.1,392.8,440.1,393.1,446.1z M378.4,443.6
		c0-8.9-0.6-17.8-1.8-26.6c-0.4-2.8-0.9-5.7-1.8-8.4c-1.8-5.9-5.7-9.9-11.6-11.8c-4.3-1.4-8.7-1.5-13.1-0.4c-5.2,1.3-9,4.3-11.3,9.1
		c-0.7,1.5-1.3,3.2-1.7,4.9c-0.7,3.1-1.3,6.2-1.7,9.3c-1.1,9-1.6,18-1.6,27c0,9.3,0.4,18.6,1.4,27.9c0.4,3.3,1,6.5,1.8,9.7
		c0.4,1.4,0.8,2.7,1.4,4.1c1.7,4.2,4.8,7.1,9,8.8c4.1,1.6,8.3,2.1,12.6,1.3c7.3-1.3,12.1-5.4,14.3-12.6c1-3.2,1.7-6.4,2.2-9.6
		c1.1-7.7,1.7-15.4,1.7-23.1C378.5,449.9,378.4,446.7,378.4,443.6z"/>
	<path class="st0" d="M758.8,447.6c-0.1,3.4-0.1,8.2-0.3,13.1c-0.3,7.2-0.9,14.3-2.5,21.3c-0.8,3.6-1.8,7.2-3.4,10.6
		c-0.9,1.9-1.9,3.9-3,5.7c-4.1,6.3-9.8,10.3-17.2,11.8c-7,1.4-13.9,1.4-20.9-0.1c-2.7-0.6-5.2-1.5-7.6-2.8c-5.7-3-9.6-7.6-12.2-13.4
		c-1.6-3.7-2.7-7.5-3.6-11.5c-0.9-4.3-1.5-8.7-1.9-13.2c-1.2-12.9-1.1-25.8-0.5-38.6c0.3-7.7,1.2-15.4,3.2-22.9
		c0.7-2.6,1.5-5.2,2.5-7.7c2.4-5.8,6.3-10.2,11.8-13.2c3.9-2.2,8.1-3.5,12.6-4c4.3-0.5,8.6-0.5,12.9,0c3.9,0.5,7.6,1.5,11.1,3.2
		c5.9,2.9,10.1,7.4,12.9,13.3c1.4,3,2.4,6.1,3.1,9.3c1,4.3,1.6,8.7,2.1,13.1C758.7,429.8,758.7,437.9,758.8,447.6z M744.6,447.2
		c-0.2-5.9-0.3-11.9-0.7-18c-0.3-5.1-0.8-10.3-1.8-15.4c-0.4-2.1-0.9-4.2-1.6-6.2c-1.7-4.8-5-8.3-9.8-10.3
		c-5.4-2.2-10.9-2.3-16.4-0.4c-3.8,1.3-6.7,3.8-8.7,7.3c-0.9,1.5-1.6,3.1-2,4.7c-0.6,2.6-1.3,5.3-1.7,8c-1.2,8.1-1.8,16.2-1.9,24.4
		c0,5.4,0,10.9,0.1,16.3c0.1,6.9,0.7,13.7,1.7,20.5c0.5,3.3,1.2,6.5,2.4,9.6c1.9,4.7,5.1,7.8,9.8,9.6c5,1.9,10.1,1.9,15.2,0.3
		c5.1-1.7,8.7-4.9,10.5-10c0.6-1.6,1.1-3.2,1.5-4.9c1.5-5.7,2.1-11.6,2.5-17.4C744.3,459.3,744.4,453.3,744.6,447.2z"/>
	<path class="st0" d="M228.7,435.4c0,15.3,0,30.7,0,46c0,2.7-0.2,5.4-0.7,8.1c-1.7,8.3-6.2,14.3-13.9,18c-4.1,1.9-8.4,3-12.8,3.3
		c-3.7,0.3-7.5,0.3-11.2,0c-4.2-0.4-8.2-1.3-12-3c-8.6-3.8-13.3-10.6-14.7-19.7c-0.4-2.7-0.5-5.4-0.5-8.1c0-30.7,0-61.3,0-92
		c0-4.8-0.1-4.5,4.4-4.5c2.9,0,5.7,0.1,8.6,0.1c0.6,0,1.1,0.5,1.1,1.1c0.1,1.4,0.1,2.9,0.1,4.3c0,23.6,0,47.3,0,70.9
		c0,6.9,0,13.8,0,20.6c0,2.2,0.2,4.3,0.8,6.4c1.3,4.6,4.1,7.8,8.5,9.6c1.1,0.4,2.2,0.8,3.3,1c4.5,0.9,9.1,1,13.6-0.3
		c6.5-1.9,10-6.4,10.8-13c0.2-1.8,0.2-3.7,0.2-5.6c0-9.9,0-19.8,0-29.7c0-19.6,0-39.3,0-58.9c0-1.3,0-2.6,0-3.9
		c0-2.5,0.5-2.7,2.7-2.7c3,0,6,0,9,0c0.4,0,0.9,0.1,1.3,0.1c0.5,0.1,1.1,0.6,1.1,1.1c0,1.4,0.1,2.9,0.1,4.3
		C228.7,404.5,228.7,420,228.7,435.4z"/>
	<path class="st0" d="M877,509.7c-0.4-0.8-0.2-1.5,0-2.2c1.4-5.8,2.8-11.7,4.2-17.5c5.9-24.2,11.8-48.4,17.7-72.6
		c2.6-10.6,5.1-21.1,7.7-31.7c0.1-0.5,0.3-1.1,0.5-1.7c0.4-0.2,0.8-0.5,1.2-0.5c5.2,0,10.3,0,15.5-0.1c0.1,0,0.3,0.1,0.4,0.1
		c0.5,0.1,1.1,0.5,1.2,1c0.9,3.9,1.8,7.8,2.7,11.7c4.8,21.6,9.6,43.3,14.5,65c3.4,15.4,6.8,30.7,10.2,46.1c0.1,0.5,0.2,1.1,0.1,1.7
		c0,0.2-0.2,0.5-0.4,0.6c-0.2,0.1-0.5,0.2-0.8,0.2c-3.9,0-7.7,0-11.6,0c-0.4,0-0.8-0.2-1.2-0.3c-1.1-2.6-1.4-5.3-2-7.9
		c-1.5-6.8-3-13.7-4.4-20.6c-0.1-0.4-0.2-0.9-0.4-1.2c-0.2-0.3-0.6-0.6-1-0.7c-0.5-0.2-1.1-0.2-1.7-0.2c-9.7,0-19.5,0-29.2,0
		c-0.4,0-0.9,0-1.3,0.1c-0.8,0.1-1.4,0.5-1.5,1.3c-0.6,2.8-1.2,5.6-1.9,8.4c-1.4,6.3-2.8,12.6-4.2,18.9c-0.1,0.3-0.1,0.6-0.2,0.8
		c-0.3,1.2-0.8,1.5-2.2,1.6c-0.4,0-0.9,0-1.3,0c-3,0-6,0-9,0C878,509.9,877.4,509.8,877,509.7z M915.9,402.2
		c-0.9,1.5-1.3,3.2-1.5,4.8c-0.3,2.1-0.7,4.2-1.2,6.3c-3.2,13.5-6.4,27-9.7,40.5c-0.9,3.8-1.7,7.5-2.6,11.3
		c-0.1,0.4,0.3,0.9,0.7,0.9c0.6,0,1.1,0.1,1.7,0.1c7.7,0,15.5,0,23.2,0c0.6,0,1.1-0.1,1.7-0.1c0.4,0,0.8-0.5,0.7-0.9
		c0-0.6,0-1.1-0.2-1.7c-2.9-13.4-5.9-26.8-8.8-40.2c-1.2-5.7-2.7-11.4-3.3-17.3C916.5,404.7,916.1,403.5,915.9,402.2z"/>
	<path class="st0" d="M245.9,446.5c0-19.3,0-38.7,0-58c0-5.4-0.5-4.9,4.8-4.9c11,0,22.1,0,33.1,0c2.9,0,5.7,0.1,8.5,0.8
		c4.5,1.2,8.1,3.5,10.9,7.2c2.2,2.9,3.8,6.1,4.7,9.6c0.7,2.5,1.3,5,1.6,7.6c0.9,7.6,1.2,15.1,0.5,22.7c-0.3,2.9-0.4,5.7-1.1,8.5
		c-0.3,1.4-0.6,2.8-1.1,4.2c-2.6,7.8-7.9,12.8-15.7,15.1c-1.9,0.6-3.9,1-5.9,1.1c-2.7,0.1-5.4,0.4-8.2,0.4c-4.3,0-8.6-0.1-12.9-0.1
		c-1.3,0-2.6,0.1-3.9,0.2c-0.4,0-1.1,0.7-1.1,1.1c-0.1,1.3-0.1,2.6-0.1,3.9c0,13,0,26.1,0,39.1c0,1.3-0.1,2.6-0.1,3.9
		c0,0.5-0.6,1.1-1.1,1.1c-3.9,0-7.7,0-11.6,0c-0.5,0-1.1-0.6-1.1-1.1c-0.1-1.4-0.1-2.9-0.1-4.3C245.9,485.1,245.9,465.8,245.9,446.5
		z M260,421.8c0,6.7,0,13.4,0,20.2c0,1.1,0,2.3,0,3.4c0,1.5,0.5,1.9,2.1,2c0.1,0,0.3,0,0.4,0c6,0,12,0,18,0c1,0,2,0,3-0.2
		c5.3-0.7,9-3.5,10.6-8.7c0.4-1.4,0.7-2.8,0.9-4.2c0.9-5.8,0.9-11.7,0.6-17.5c-0.2-3.6-0.5-7.1-1.4-10.6c-0.6-2.3-1.7-4.2-3.4-5.9
		c-1.5-1.6-3.3-2.7-5.5-3c-1.6-0.2-3.1-0.5-4.7-0.6c-6-0.1-12,0-18,0c-0.6,0-1.2,0-1.7,0.2c-0.3,0.1-0.7,0.5-0.8,0.9
		c-0.2,1-0.2,2-0.2,3C260,407.8,260,414.8,260,421.8z"/>
	<path class="st0" d="M437.6,446.6c0-19.3,0-38.7,0-58c0-1.4,0.1-2.9,0.2-4.3c0-0.2,0.3-0.5,0.6-0.6c0.2-0.1,0.5-0.2,0.8-0.2
		c1.1,0,2.3-0.1,3.4-0.1c15.9,0,31.8,0,47.7,0c1.3,0,2.6,0.1,3.9,0.1c0.5,0,1,0.6,1.1,1.1c0,0.1,0.1,0.3,0.1,0.4c0,3.3,0,6.6,0,9.9
		c0,1-0.6,1.6-1.6,1.6c-1.3,0-2.6,0.1-3.9,0.1c-11.3,0-22.6,0-34,0c-1.1,0-2.3,0.1-3.4,0.2c-0.2,0-0.5,0.3-0.6,0.6
		c-0.1,0.2-0.2,0.5-0.2,0.8c0,0.7-0.1,1.4-0.1,2.1c0,11.9,0,23.8,0,35.7c0,0.9,0.1,1.7,0.2,2.6c0,0.2,0.3,0.5,0.6,0.6
		c0.4,0.1,0.8,0.2,1.3,0.2c2.3,0,4.6,0,6.9,0c9.3,0,18.6,0,27.9,0c1.1,0,2.3,0,3.4,0.2c0.3,0,0.6,0.5,0.9,0.8
		c0.1,0.1,0.1,0.3,0.1,0.4c0,3.4,0,6.9,0,10.3c0,0.7-0.6,1.4-1.3,1.4c-1.3,0.1-2.6,0.1-3.9,0.1c-10.3,0-20.6,0-31,0
		c-1.3,0-2.6,0.1-3.9,0.2c-0.5,0-1,0.7-1.1,1.2c0,0.7-0.1,1.4-0.1,2.1c0,12.3,0,24.6,0,37c0,0.7,0,1.4,0.1,2.1
		c0.1,0.3,0.5,0.8,0.8,0.9c1.3,0.1,2.6,0.2,3.9,0.2c11.3,0,22.6,0,34,0c1.3,0,2.6,0,3.9,0.1c0.7,0,1.3,0.6,1.3,1.4
		c0,3.6,0,7.2,0,10.7c0,0.8-0.6,1.3-1.4,1.3c-0.9,0-1.7,0.1-2.6,0.1c-16.6,0-33.2,0-49.9,0c-4.1,0-4,0-4-4
		C437.6,486.2,437.6,466.4,437.6,446.6z"/>
	<path class="st0" d="M639.7,453.3c0-17.2,0-34.4,0-51.6c0-1.4-0.1-2.9-0.2-4.3c0-0.2-0.3-0.6-0.6-0.6c-0.7-0.1-1.4-0.2-2.1-0.2
		c-6,0-12,0-18.1,0c-1.4,0-2.9,0-4.3-0.1c-0.6,0-1.1-0.5-1.1-1.1c0-3.6,0-7.2,0-10.7c0-0.5,0.6-1.1,1.1-1.1c0.7,0,1.4-0.1,2.1-0.1
		c20.2,0,40.4,0,60.6,0c0.7,0,1.4,0.1,2.1,0.1c0.6,0,1.2,0.5,1.2,1c0,3.6,0,7.2,0,10.7c0,0.6-0.5,1.1-1,1.2c-1.1,0-2.3,0.1-3.4,0.1
		c-6.3,0-12.6,0-18.9,0c-0.7,0-1.4,0.1-2.1,0.2c-0.2,0-0.5,0.3-0.6,0.6c-0.2,0.4-0.2,0.8-0.2,1.3c0,1.4,0,2.9,0,4.3
		c0,33.7,0,67.4,0,101c0,1.4,0,2.9-0.1,4.3c0,1-0.6,1.6-1.6,1.6c-2.1,0-4.3,0.1-6.4,0c-1.7,0-3.4,0-5.2-0.1c-0.5,0-1.1-0.6-1.1-1.1
		c-0.1-1.3-0.1-2.6-0.1-3.9C639.7,487.7,639.7,470.5,639.7,453.3z"/>
	<path class="st0" d="M962.4,446.5c0-19.3,0-38.7,0-58c0-5.3-0.5-4.9,4.8-4.9c2.7,0,5.4,0,8.2,0.1c0.7,0,1.3,0.6,1.3,1.4
		c0,1.6,0.1,3.1,0.1,4.7c0,33.2,0,66.5,0,99.7c0,1.3,0,2.6,0,3.9c0,3,0.1,3.1,3.2,3.1c11,0,22.1,0,33.1,0c5.9,0,5.3-0.6,5.4,5.2
		c0,2.3,0,4.6-0.1,6.9c0,0.8-0.6,1.3-1.4,1.4c-1,0-2,0.1-3,0.1c-15.8,0-31.5,0-47.3,0c-1.1,0-2.3-0.1-3.4-0.2
		c-0.2,0-0.5-0.3-0.6-0.6c-0.1-0.4-0.2-0.8-0.2-1.3c0-1.3,0-2.6,0-3.9C962.4,484.9,962.4,465.7,962.4,446.5z"/>
	<path class="st0" d="M603.9,446.9c0,19.2,0,38.4,0,57.6c0,1.4-0.1,2.9-0.1,4.3c0,0.5-0.6,1.1-1.1,1.1c-4,0-8,0-12,0
		c-0.6,0-1.1-0.5-1.2-1.1c-0.1-1.1-0.1-2.3-0.1-3.4c0-6.6,0-13.2,0-19.8c0-32.2,0-64.4,0-96.6c0-1.4,0.1-2.9,0.1-4.3
		c0-0.5,0.6-1.1,1.1-1.1c1.1-0.1,2.3-0.1,3.4-0.1c2.9,0,5.7,0.1,8.6,0.1c0.6,0,1.1,0.5,1.2,1c0.1,1.3,0.1,2.6,0.1,3.9
		C603.9,408,603.9,427.4,603.9,446.9z"/>
	<path class="st0" d="M867.3,446.3c0,19.3,0,38.6,0,58c0,1.4,0,2.9-0.1,4.3c0,0.7-0.6,1.3-1.4,1.3c-3.9,0-7.7,0-11.6,0
		c-0.7,0-1.3-0.7-1.3-1.4c-0.1-1.6-0.1-3.1-0.1-4.7c0-36.9,0-73.9,0-110.8c0-2,0-4,0-6c0-0.6,0-1.1,0-1.7c0.1-1.1,0.6-1.7,1.5-1.7
		c3.9,0,7.7,0,11.6,0c0.8,0,1.3,0.6,1.3,1.4c0,1.4,0.1,2.9,0.1,4.3C867.3,408.3,867.3,427.3,867.3,446.3z"/>
</g>
</svg>
