<svg width="60" height="47" viewBox="0 0 60 47" fill="none" xmlns="http://www.w3.org/2000/svg">
<g style="mix-blend-mode:difference" filter="url(#filter0_d)">
<path d="M44.2974 6.49671L43.6653 8.31093C42.8764 7.65942 42.1682 7.19458 41.5406 6.91642C40.1383 6.30547 38.4495 6 36.4742 6C33.6 6 31.3027 6.63247 29.5824 7.89742C27.8853 9.15161 27.0364 10.9269 27.0356 13.2234C27.0356 15.7541 28.0791 17.5907 30.166 18.7331C31.1234 19.2526 32.1332 19.6689 33.1786 19.9749C34.2763 20.306 35.8132 20.6582 37.7893 21.0316C39.2206 21.2982 40.1971 21.5755 40.7186 21.8636C41.6069 22.3744 42.0506 23.078 42.0498 23.9746C42.0518 24.2829 41.9875 24.588 41.8613 24.8693C41.7351 25.1506 41.55 25.4015 41.3184 25.605C40.6851 26.1845 39.7028 26.4743 38.3717 26.4743C36.2855 26.4743 34.4601 25.8641 32.8955 24.6439C32.1504 24.0644 31.6065 23.4762 31.2638 22.8794C30.921 22.2825 30.6549 21.467 30.4653 20.4331H27.0194V29.2211H30.1822L30.8316 27.49C31.8747 28.1217 32.7568 28.5712 33.4778 28.8386C35.045 29.4247 36.9204 29.7178 39.1043 29.7178C40.6019 29.7178 41.885 29.5708 42.9538 29.2769C43.9817 29.0019 44.944 28.5235 45.7838 27.87C47.4494 26.5728 48.2818 24.7863 48.281 22.5105C48.281 19.3366 46.511 17.0894 42.9712 15.769C41.9935 15.4023 40.2235 14.9805 37.6614 14.5036C36.052 14.2048 34.9758 13.9274 34.4328 13.6716C33.5966 13.2759 33.1786 12.7055 33.1786 11.9605C33.1786 11.0954 33.6281 10.4459 34.5271 10.0122C35.2921 9.64542 36.2242 9.46246 37.3236 9.46329C39.298 9.46329 40.8958 10.0014 42.1168 11.0776C43.1599 11.9882 43.787 13.2867 43.9981 14.973H47.3434V6.49671H44.2974Z" fill="white"/>
<path d="M49.0511 30.7112H48.9071V32.0101H49.41V31.876H49.0511V30.7112ZM48.4042 31.5072H47.9646L48.1869 30.9869L48.4042 31.5072ZM48.4601 31.6413L48.614 32.0138H48.7742L48.1894 30.6479L47.5896 32.0138H47.7498L47.9062 31.6413H48.4601ZM47.4828 30.8168C47.3713 30.733 47.2348 30.6893 47.0954 30.6926C46.9172 30.6926 46.7463 30.7634 46.6203 30.8893C46.4943 31.0153 46.4236 31.1862 46.4236 31.3644C46.4236 31.5425 46.4943 31.7134 46.6203 31.8394C46.7463 31.9654 46.9172 32.0362 47.0954 32.0362C47.2343 32.036 47.3697 31.9926 47.4828 31.912V31.7319C47.3794 31.839 47.2379 31.901 47.0891 31.9045C46.9465 31.9045 46.8098 31.8479 46.7089 31.7471C46.6081 31.6462 46.5515 31.5095 46.5515 31.3669C46.5515 31.2243 46.6081 31.0875 46.7089 30.9867C46.8098 30.8858 46.9465 30.8292 47.0891 30.8292C47.1633 30.8301 47.2366 30.8459 47.3046 30.8755C47.3726 30.9052 47.434 30.9481 47.4853 31.0018L47.4828 30.8168ZM46.2261 30.7112H46.0808V32.0101H46.2261V30.7112ZM45.0539 31.876V30.8453H45.1594C45.305 30.8323 45.4499 30.8769 45.563 30.9695C45.6157 31.0186 45.6579 31.078 45.6869 31.1439C45.7159 31.2099 45.7311 31.2811 45.7317 31.3531C45.7323 31.4252 45.7182 31.4966 45.6902 31.563C45.6623 31.6294 45.6211 31.6894 45.5692 31.7394C45.5136 31.7884 45.4486 31.8256 45.3781 31.8487C45.3077 31.8717 45.2333 31.8802 45.1594 31.8735L45.0539 31.876ZM44.9098 32.0101H45.1507C45.243 32.0188 45.336 32.0089 45.4243 31.9809C45.5126 31.953 45.5944 31.9076 45.6648 31.8474C45.7321 31.7848 45.7858 31.709 45.8225 31.6247C45.8591 31.5404 45.8781 31.4495 45.8781 31.3575C45.8781 31.2656 45.8591 31.1747 45.8225 31.0904C45.7858 31.0061 45.7321 30.9303 45.6648 30.8677C45.5215 30.7513 45.3384 30.6951 45.1545 30.7112H44.9061L44.9098 32.0101ZM43.4806 32.0101H43.6259V31.0092L44.6453 32.0771V30.7112H44.5001V31.717L43.4868 30.6566L43.4806 32.0101ZM43.2123 30.7112H43.0683V32.0101H43.2123V30.7112ZM42.8262 30.89C42.7944 30.8287 42.7462 30.7774 42.687 30.7419C42.6278 30.7064 42.5599 30.688 42.4909 30.6889C42.4451 30.6857 42.3991 30.6918 42.3557 30.7068C42.3123 30.7218 42.2725 30.7455 42.2385 30.7764C42.2045 30.8072 42.1771 30.8446 42.1579 30.8864C42.1388 30.9281 42.1283 30.9733 42.127 31.0192C42.127 31.2054 42.2512 31.2837 42.4102 31.352L42.4884 31.3867C42.6126 31.4414 42.7281 31.4935 42.7281 31.645C42.7248 31.7131 42.6951 31.7772 42.6452 31.8236C42.5953 31.87 42.5292 31.8951 42.4611 31.8934C42.3959 31.8919 42.3334 31.8665 42.2856 31.8221C42.2378 31.7777 42.2079 31.7174 42.2015 31.6525L42.06 31.6922C42.0776 31.7927 42.1322 31.8831 42.213 31.9455C42.2937 32.008 42.3949 32.038 42.4966 32.0298C42.5984 32.0215 42.6934 31.9756 42.7631 31.901C42.8328 31.8264 42.8721 31.7285 42.8733 31.6264C42.8733 31.4203 42.7305 31.3358 42.5617 31.2613L42.4747 31.2228C42.3878 31.1831 42.2723 31.1322 42.2723 31.0192C42.273 30.9918 42.2791 30.9648 42.2902 30.9398C42.3014 30.9147 42.3175 30.8922 42.3375 30.8735C42.3575 30.8547 42.381 30.8402 42.4067 30.8307C42.4324 30.8211 42.4598 30.8168 42.4871 30.818C42.5343 30.8167 42.5807 30.8295 42.6205 30.8547C42.6603 30.8799 42.6917 30.9164 42.7107 30.9596L42.8262 30.89ZM40.1626 32.0076H40.3066V31.0067L41.3199 32.0672V30.7112H41.1758V31.717L40.1626 30.6566V32.0076ZM39.2821 30.8205C39.3887 30.8195 39.4931 30.8502 39.5822 30.9087C39.6713 30.9672 39.741 31.0508 39.7824 31.1489C39.8239 31.2471 39.8352 31.3554 39.8151 31.46C39.7949 31.5646 39.7441 31.6609 39.6691 31.7366C39.5941 31.8123 39.4983 31.864 39.3939 31.8851C39.2894 31.9063 39.1811 31.8959 39.0825 31.8554C38.984 31.8148 38.8997 31.7459 38.8404 31.6574C38.7811 31.5689 38.7494 31.4647 38.7494 31.3582C38.7489 31.2878 38.7623 31.2181 38.7889 31.153C38.8154 31.0878 38.8546 31.0286 38.9041 30.9786C38.9536 30.9287 39.0124 30.889 39.0773 30.8618C39.1422 30.8347 39.2118 30.8206 39.2821 30.8205ZM39.2821 30.6864C39.1496 30.6873 39.0203 30.7275 38.9105 30.8018C38.8008 30.8761 38.7154 30.9812 38.6653 31.1039C38.6151 31.2266 38.6024 31.3614 38.6287 31.4913C38.6549 31.6213 38.7191 31.7405 38.813 31.8341C38.9069 31.9276 39.0263 31.9913 39.1563 32.0171C39.2864 32.0429 39.4211 32.0297 39.5436 31.979C39.6661 31.9284 39.7709 31.8427 39.8448 31.7327C39.9187 31.6226 39.9584 31.4932 39.9589 31.3606C39.9579 31.1817 39.8862 31.0104 39.7595 30.8841C39.6327 30.7578 39.4611 30.6867 39.2821 30.6864ZM39.3132 30.2368L39.1071 30.5187L39.194 30.5672L39.4572 30.3014L39.3132 30.2368ZM38.4092 30.7087H38.2639V32.0076H38.4092V30.7087ZM38.0367 30.8143C37.9248 30.7303 37.7878 30.6865 37.648 30.6901C37.5419 30.6895 37.4372 30.714 37.3424 30.7616C37.2477 30.8092 37.1655 30.8786 37.1027 30.9641C37.0399 31.0495 36.9982 31.1487 36.9811 31.2533C36.964 31.358 36.9718 31.4652 37.0041 31.5663C37.0364 31.6673 37.0921 31.7593 37.1668 31.8346C37.2414 31.91 37.3328 31.9666 37.4335 31.9998C37.5342 32.0331 37.6414 32.042 37.7462 32.0259C37.8511 32.0097 37.9506 31.969 38.0367 31.907V31.727C37.9331 31.8338 37.7918 31.8957 37.643 31.8996C37.5004 31.8996 37.3636 31.8429 37.2628 31.7421C37.162 31.6413 37.1053 31.5045 37.1053 31.3619C37.1053 31.2193 37.162 31.0825 37.2628 30.9817C37.3636 30.8809 37.5004 30.8242 37.643 30.8242C37.7174 30.8251 37.7908 30.8409 37.8591 30.8705C37.9273 30.9002 37.9889 30.9431 38.0404 30.9968L38.0367 30.8143ZM36.5999 31.5047H36.1603L36.3826 30.9844L36.5999 31.5047ZM36.657 31.6388L36.8098 32.0113H36.97L36.3863 30.6454L35.7866 32.0113H35.9443L36.102 31.6388H36.657ZM35.6785 30.8143C35.567 30.7305 35.4305 30.6868 35.2911 30.6901C35.1129 30.6901 34.9421 30.7609 34.8161 30.8869C34.6901 31.0128 34.6193 31.1837 34.6193 31.3619C34.6193 31.5401 34.6901 31.7109 34.8161 31.8369C34.9421 31.9629 35.1129 32.0337 35.2911 32.0337C35.43 32.0335 35.5654 31.9901 35.6785 31.9095V31.7295C35.5756 31.8364 35.4346 31.8984 35.2861 31.9021C35.1435 31.9021 35.0068 31.8454 34.9059 31.7446C34.8051 31.6437 34.7484 31.507 34.7484 31.3644C34.7484 31.2218 34.8051 31.085 34.9059 30.9842C35.0068 30.8833 35.1435 30.8267 35.2861 30.8267C35.3603 30.8275 35.4336 30.8432 35.5017 30.8729C35.5697 30.9025 35.6311 30.9455 35.6823 30.9993L35.6785 30.8143ZM34.4231 30.7112H34.2791V32.0101H34.4231V30.7112ZM33.2521 31.876V30.8453H33.3564C33.502 30.8322 33.647 30.8768 33.76 30.9695C33.8126 31.0186 33.8547 31.0779 33.8837 31.1438C33.9128 31.2097 33.9281 31.2808 33.9288 31.3528C33.9295 31.4248 33.9155 31.4962 33.8878 31.5627C33.8601 31.6291 33.8191 31.6892 33.7675 31.7394C33.7116 31.7885 33.6464 31.8257 33.5757 31.8487C33.5051 31.8718 33.4305 31.8802 33.3564 31.8735L33.2521 31.876ZM33.1068 32.0101H33.3453C33.4375 32.0188 33.5305 32.0089 33.6188 31.9809C33.7071 31.953 33.7889 31.9076 33.8593 31.8474C33.927 31.785 33.9809 31.7092 34.0178 31.6249C34.0547 31.5406 34.0738 31.4496 34.0738 31.3575C34.0738 31.2655 34.0547 31.1745 34.0178 31.0902C33.9809 31.0059 33.927 30.9301 33.8593 30.8677C33.7171 30.752 33.5355 30.6959 33.3527 30.7112H33.1043L33.1068 32.0101ZM31.6776 32.0101H31.8228V31.0092L32.8361 32.0771V30.7112H32.6921V31.717L31.6776 30.6566V32.0101ZM31.4106 30.7112H31.2653V32.0101H31.4106V30.7112ZM30.2433 30.7112H30.0856L30.6134 32.0896L31.1411 30.7112H30.9859L30.6134 31.7046L30.2433 30.7112ZM28.7991 32.0101H28.9444V31.0092L29.9577 32.0697V30.7112H29.8124V31.717L28.7991 30.6566V32.0101ZM28.5322 30.7112H28.3869V32.0101H28.5322V30.7112ZM27.5015 32.0101H28.1758V31.876H27.6455V31.3656H28.1596V31.2327H27.6455V30.8466H28.1758V30.7112H27.5015V32.0101ZM26.7378 31.4401H26.7738L27.1662 32.0101H27.3438L26.9303 31.4277C26.9756 31.4266 27.0202 31.4164 27.0615 31.3978C27.1027 31.3792 27.1399 31.3525 27.1707 31.3192C27.2015 31.286 27.2253 31.247 27.2407 31.2044C27.2562 31.1618 27.2629 31.1166 27.2606 31.0713C27.2606 30.7783 27.0309 30.7124 26.7837 30.7124H26.5962V32.0113H26.7415L26.7378 31.4401ZM26.7378 30.8453H26.78C26.9551 30.8453 27.1116 30.8664 27.1116 31.08C27.1116 31.2936 26.9464 31.3122 26.7825 31.3122H26.7378V30.8453ZM25.5494 31.5072H25.1111L25.3334 30.9869L25.5494 31.5072ZM25.6066 31.6413L25.7605 32.0138H25.9207L25.3358 30.6479L24.7361 32.0138H24.9012L25.0577 31.6413H25.6066ZM24.5063 30.8453H24.823V30.7112H24.0469V30.8453H24.3611V32.0101H24.5063V30.8453ZM23.2459 32.0101H23.9202V31.876H23.3912V31.3656H23.9078V31.2327H23.395V30.8466H23.924V30.7112H23.2497L23.2459 32.0101ZM23.0237 30.8168C22.9121 30.733 22.7757 30.6893 22.6362 30.6926C22.4581 30.6926 22.2872 30.7634 22.1612 30.8893C22.0352 31.0153 21.9644 31.1862 21.9644 31.3644C21.9644 31.5425 22.0352 31.7134 22.1612 31.8394C22.2872 31.9654 22.4581 32.0362 22.6362 32.0362C22.7751 32.036 22.9105 31.9926 23.0237 31.912V31.7319C22.9207 31.8389 22.7797 31.9009 22.6313 31.9045C22.4887 31.9045 22.3519 31.8479 22.2511 31.7471C22.1502 31.6462 22.0936 31.5095 22.0936 31.3669C22.0936 31.2243 22.1502 31.0875 22.2511 30.9867C22.3519 30.8858 22.4887 30.8292 22.6313 30.8292C22.7055 30.83 22.7788 30.8457 22.8468 30.8753C22.9149 30.905 22.9763 30.948 23.0274 31.0018L23.0237 30.8168ZM21.5869 31.5072H21.1486L21.3709 30.9869L21.5869 31.5072ZM21.6441 31.6413L21.798 32.0138H21.9582L21.3734 30.6479L20.7736 32.0138H20.9276L21.084 31.6413H21.6441ZM20.2173 31.3569V31.4923H20.6035C20.6035 31.7332 20.3663 31.8983 20.1403 31.8983C19.9995 31.8934 19.866 31.8342 19.7678 31.7332C19.7192 31.6842 19.6808 31.626 19.6548 31.5621C19.6288 31.4981 19.6157 31.4297 19.6163 31.3606C19.6153 31.2186 19.6704 31.0818 19.7697 30.9802C19.869 30.8786 20.0044 30.8203 20.1465 30.818C20.2359 30.8185 20.3237 30.8415 20.4018 30.8849C20.48 30.9283 20.5459 30.9907 20.5935 31.0663L20.6978 30.9683C20.6313 30.8739 20.5416 30.7982 20.4373 30.7484C20.3331 30.6987 20.2179 30.6766 20.1026 30.6841C19.9874 30.6917 19.876 30.7288 19.7792 30.7917C19.6824 30.8547 19.6034 30.9415 19.5498 31.0437C19.4961 31.146 19.4696 31.2604 19.4729 31.3758C19.4761 31.4912 19.5089 31.6039 19.5682 31.703C19.6275 31.8021 19.7112 31.8844 19.8114 31.9418C19.9115 31.9993 20.0248 32.0301 20.1403 32.0312C20.2311 32.0312 20.3209 32.012 20.4038 31.9747C20.4866 31.9375 20.5606 31.8831 20.6209 31.8151C20.6725 31.7512 20.7109 31.6777 20.734 31.5989C20.757 31.52 20.7641 31.4373 20.755 31.3557L20.2173 31.3569Z" fill="white"/>
<path d="M20.3203 9.1455H23.0994C24.265 9.1455 25.1086 9.30652 25.6301 9.62855C26.3959 10.0946 26.7788 10.9879 26.7788 12.3083C26.7788 13.6055 26.4062 14.5162 25.6612 15.0402C25.1835 15.3713 24.2456 15.5369 22.8473 15.5369C22.5162 15.5369 21.673 15.5315 20.3179 15.5207L20.3203 9.1455ZM23.1503 18.4501C23.9376 18.4501 24.4645 18.5055 24.7311 18.6165C25.3412 18.8648 25.6463 19.4199 25.6463 20.2817L25.614 22.7118C25.614 24.6424 25.9745 26.1569 26.6956 27.2555C27.5838 28.599 29.1207 29.2704 31.3063 29.2696C32.9926 29.2696 34.3076 28.7812 35.2514 27.8043C36.0941 26.9285 36.5159 25.719 36.5167 24.1759C36.5167 23.7545 36.489 23.1663 36.4335 22.4113H34.253C34.2306 24.067 34.1694 25.0381 34.0692 25.3245C33.9475 25.702 33.6755 25.8908 33.2533 25.8908C33.0896 25.9003 32.927 25.8572 32.7894 25.7679C32.6518 25.6785 32.5464 25.5475 32.4884 25.394C32.3767 25.1175 32.3212 24.6237 32.322 23.9126V21.5533C32.3362 20.8993 32.2745 20.2459 32.1382 19.6062C31.9784 18.9526 31.6106 18.3686 31.0902 17.9422C30.4461 17.4455 29.3972 17.0957 27.9435 16.8929C28.5434 16.8112 29.1379 16.6947 29.7242 16.544C30.7041 16.2827 31.5882 15.7451 32.2711 14.9955C33.1187 14.0378 33.5764 12.7972 33.5539 11.5185C33.5658 10.4697 33.245 9.44417 32.6374 8.58919C31.817 7.4062 30.6042 6.63175 28.9991 6.26584C28.3326 6.1218 27.0731 6.04977 25.2204 6.04977H10V9.1455H11.9148C12.457 9.15709 12.8341 9.20718 13.0461 9.29576C13.3453 9.3951 13.5229 9.6509 13.5788 10.0607C13.6235 10.3595 13.6566 11.1199 13.6781 12.3418V22.4622C13.6558 23.483 13.645 24.0707 13.6458 24.2255C13.6119 24.704 13.5291 25.0484 13.3975 25.2587C13.2195 25.4996 12.7253 25.6325 11.9148 25.6573H10V28.7704H23.9985V25.6573H22.0849C21.541 25.6573 21.1635 25.6138 20.9524 25.5244C20.6535 25.4143 20.4706 25.1589 20.4035 24.7583C20.3696 24.4586 20.3419 23.6932 20.3203 22.4622V18.4501H23.1503Z" fill="#F3F3F3"/>
</g>
<defs>
<filter id="filter0_d" x="0" y="0" width="59.41" height="46.0896" filterUnits="userSpaceOnUse" color-interpolation-filters="sRGB">
<feFlood flood-opacity="0" result="BackgroundImageFix"/>
<feColorMatrix in="SourceAlpha" type="matrix" values="0 0 0 0 0 0 0 0 0 0 0 0 0 0 0 0 0 0 127 0"/>
<feOffset dy="4"/>
<feGaussianBlur stdDeviation="5"/>
<feColorMatrix type="matrix" values="0 0 0 0 0 0 0 0 0 0 0 0 0 0 0 0 0 0 0.5 0"/>
<feBlend mode="normal" in2="BackgroundImageFix" result="effect1_dropShadow"/>
<feBlend mode="normal" in="SourceGraphic" in2="effect1_dropShadow" result="shape"/>
</filter>
</defs>
</svg>
