<svg width="29" height="29" viewBox="0 0 29 29" fill="none" xmlns="http://www.w3.org/2000/svg">
<path d="M20.6081 6.30915C20.5164 6.25682 20.4036 6.2577 20.3127 6.31144L14.9247 9.49755C14.785 9.5802 14.7386 9.76049 14.8213 9.90027C14.9039 10.04 15.0842 10.0863 15.224 10.0037L19.0898 7.71774L11.8891 15.1891L8.30775 14.0934L12.9816 11.3297C13.1214 11.247 13.1677 11.0667 13.0851 10.9269C13.0024 10.7872 12.8221 10.7408 12.6823 10.8235L7.43472 13.9265C7.33446 13.9858 7.27863 14.0987 7.29242 14.2144C7.30621 14.3301 7.38697 14.4267 7.49835 14.4608L11.7754 15.7693L13.6623 19.2038C13.6643 19.2074 13.6663 19.2104 13.6684 19.213C13.6999 19.2656 13.7471 19.3085 13.806 19.3332C13.8428 19.3487 13.8815 19.3563 13.92 19.3563C13.9953 19.3563 14.0695 19.3273 14.1255 19.2725L16.2952 17.152L20.3764 18.4006C20.4046 18.4092 20.4336 18.4135 20.4624 18.4135C20.5246 18.4135 20.586 18.3937 20.6373 18.3558C20.7122 18.3004 20.7564 18.2127 20.7564 18.1195V6.56454C20.7564 6.45895 20.6998 6.36146 20.6081 6.30915ZM13.6784 15.9505C13.6443 15.9997 13.6261 16.0581 13.6261 16.1179V17.9165L12.3376 15.5712L18.0392 9.65526L13.6784 15.9505ZM14.2141 18.3638V16.5154L15.6545 16.956L14.2141 18.3638ZM20.1684 17.722L14.3909 15.9545L20.1684 7.6143V17.722Z" fill="#F6F6F6"/>
<path d="M10.537 16.4899C10.4222 16.3751 10.2361 16.3751 10.1212 16.4899L7.37646 19.2346C7.26164 19.3495 7.26164 19.5356 7.37646 19.6505C7.43391 19.7079 7.50915 19.7366 7.58439 19.7366C7.65962 19.7366 7.73486 19.7079 7.79229 19.6504L10.537 16.9057C10.6518 16.7909 10.6518 16.6048 10.537 16.4899Z" fill="#F6F6F6"/>
<path d="M6.88085 20.1461C6.76601 20.0314 6.5799 20.0314 6.46505 20.1462L5.78881 20.8224C5.67399 20.9372 5.67399 21.1234 5.78881 21.2382C5.84623 21.2956 5.92147 21.3243 5.99671 21.3243C6.07195 21.3243 6.14719 21.2956 6.20461 21.2382L6.88085 20.562C6.99567 20.4471 6.99567 20.261 6.88085 20.1461Z" fill="#F6F6F6"/>
<path d="M9.89688 20.8049C9.84222 20.7502 9.76637 20.7188 9.68904 20.7188C9.61139 20.7188 9.53585 20.7502 9.48117 20.8049C9.42648 20.8596 9.39502 20.9351 9.39502 21.0128C9.39502 21.0901 9.42645 21.166 9.48117 21.2206C9.53585 21.2753 9.61171 21.3068 9.68904 21.3068C9.76637 21.3068 9.84222 21.2753 9.89688 21.2206C9.95157 21.166 9.98306 21.0901 9.98306 21.0128C9.98306 20.9351 9.9516 20.8596 9.89688 20.8049Z" fill="#F6F6F6"/>
<path d="M12.0844 18.6174C11.9697 18.5025 11.7836 18.5025 11.6686 18.6174L10.2148 20.0711C10.1 20.186 10.1 20.3721 10.2148 20.4869C10.2723 20.5444 10.3475 20.5731 10.4227 20.5731C10.498 20.5731 10.5732 20.5443 10.6306 20.4869L12.0844 19.0332C12.1993 18.9183 12.1993 18.7322 12.0844 18.6174Z" fill="#F6F6F6"/>
<path d="M17.1019 18.506C16.987 18.3912 16.8009 18.3912 16.6861 18.506L15.2283 19.9638C15.1135 20.0786 15.1135 20.2647 15.2283 20.3796C15.2857 20.437 15.361 20.4657 15.4362 20.4657C15.5115 20.4657 15.5867 20.437 15.6441 20.3796L17.1019 18.9218C17.2167 18.807 17.2167 18.6209 17.1019 18.506Z" fill="#F6F6F6"/>
<path d="M14.0381 10.278C13.9835 10.2234 13.9076 10.1919 13.8303 10.1919C13.7529 10.1919 13.6771 10.2234 13.6224 10.278C13.5677 10.3327 13.5363 10.4086 13.5363 10.4862C13.5363 10.5635 13.5677 10.6391 13.6224 10.6938C13.6771 10.7488 13.7529 10.7799 13.8303 10.7799C13.9076 10.7799 13.9835 10.7488 14.0381 10.6938C14.0928 10.6391 14.1243 10.5635 14.1243 10.4862C14.1243 10.4086 14.0928 10.3327 14.0381 10.278Z" fill="#F6F6F6"/>
<circle cx="14.5" cy="14.5" r="14.25" stroke="#F6F6F6" stroke-width="0.5"/>
<circle cx="14.5" cy="14.5" r="14.25" stroke="url(#paint0_linear)" stroke-width="0.5"/>
<circle cx="14.5" cy="14.5" r="14.25" stroke="#F6F6F6" stroke-width="0.5"/>
<defs>
<linearGradient id="paint0_linear" x1="14.5" y1="0" x2="14.5" y2="29" gradientUnits="userSpaceOnUse">
<stop stop-color="#C3A27C"/>
<stop offset="1" stop-color="#ABC0E4"/>
</linearGradient>
</defs>
</svg>
