<svg xmlns="http://www.w3.org/2000/svg" xmlns:xlink="http://www.w3.org/1999/xlink" width="838" height="305" viewBox="0 0 838 305">
  <defs>
    <clipPath id="clip-path">
      <rect id="Rectangle_1" data-name="Rectangle 1" width="826" height="305" transform="translate(-7 219)" fill="#f80000" stroke="#707070" stroke-width="1"/>
    </clipPath>
    <clipPath id="clip-iPhone_X_XS_11_Pro_1">
      <rect width="838" height="305"/>
    </clipPath>
  </defs>
  <g id="iPhone_X_XS_11_Pro_1" data-name="iPhone X/XS/11 Pro – 1" clip-path="url(#clip-iPhone_X_XS_11_Pro_1)">
    <g id="Mask_Group_1" data-name="Mask Group 1" transform="translate(7 -219)" clip-path="url(#clip-path)">
      <g id="logoAnimal" transform="translate(-0.031 229.213)">
        <path id="Path_1" data-name="Path 1" d="M760.135,236.836v.264c0,13.518-9.563,25.025-23.953,25.025-14.289,0-24.117-11.771-24.117-25.289v-.264c0-13.518,9.555-25.033,23.828-25.033a24.574,24.574,0,0,1,17.5,7.556,24.268,24.268,0,0,1,6.741,17.741M790.51,27.518c-7.234-7.291-42-27.65-55.4-27.518S704.2,11.1,693.2,15.817s-12.563,4.667-12.563,4.667c-5.563,1.382-3.422,2.042-7.906,6.2-4.461,4.154-8.266,5.785-19.211,9.131s-19.86,4.62-22.5,6.879-1.086,3.1-2.344,5.4-1.82,1.11-3.289,3.8.219,10.971-.937,16.026-2.844,2.446-3.609,7.314c-.75,4.868,4.977,10.35,5.727,17.028s-.766,10.94-.828,18.573,5.711,28.783,3.641,43.4-15.172,5.754-20.6,3.215c-5.422-2.523-15.906.916-15.906.916l.719,5.427s1.82-1.3,9.524-1.832,15.625,9.3,26.774,6.383c7.945-2.081,13.492-14.613,13.82-24,.258-7.671,1.344-27.953,1.383-29.125s2.211-1.3,2.211-1.3,1.6,5.148,3.016,4.022,3.453-8.89,4.484-10.226,9.258-5.559,13.727-9.527,4.977-7.268,7.344-7.384,11.2,6.445,14.328,7.338c3.117.893,4.523.148,5.273,1.351s15.711,53.2,15.875,54.181,5.2,9.38,6.672,12.167c1.3,2.453-5.391,21.174-6.188,27.991a48.007,48.007,0,0,0-26.563,43v.264c0,26.9,21.539,48.459,50.625,48.459S786.8,263.733,786.8,236.836v-.264a47.467,47.467,0,0,0-22.914-40.857c3-1.662,1.289-3.479-2.953-6.165s-2.742-23.131-.4-28.139c2.328-5.016,15.789-47.053,19.8-49.259,4.016-2.221,5.3-5.311,11.75-9.4s10.422-11,10.766-9.426c.328,1.576-2.883,20.848-2.008,29.684.891,8.844,9.93,32.448,9.93,32.448s-4.9-23.853-5.945-33.489c-1.055-9.62,3.477-21.221,9.531-42.55,6.039-21.329-16.609-44.615-23.844-51.906" transform="translate(3.664 0)" fill="#ff393f"/>
        <path id="Path_2" data-name="Path 2" d="M63.024,144.394,52.532,117.762,41.891,144.394ZM40.141,86.983H65.313l40.149,94.355H77.438l-6.867-16.733H34.211l-6.727,16.733H0Z" transform="translate(0 0)" fill="#ff393f"/>
        <path id="Path_3" data-name="Path 3" d="M116.579,87.655h24.389l38.768,49.524V87.655H205.6v93.679H182.706l-40.275-51.395v51.395H116.579Z" transform="translate(0.721 0)" fill="#ff393f"/>
        <rect id="Rectangle_2" data-name="Rectangle 2" width="26.274" height="93.68" transform="translate(226.233 87.656)" fill="#ff393f"/>
        <path id="Path_4" data-name="Path 4" d="M270.76,87.655h27.609l22.493,36.26,22.493-36.26h27.609v93.679h-26V127.526l-24.1,36.68h-.539L296.355,127.8v53.537H270.76Z" transform="translate(1.673 0)" fill="#ff393f"/>
        <path id="Path_5" data-name="Path 5" d="M445.153,144.394l-10.5-26.633L424,144.394Zm-22.9-57.411h25.188l40.133,94.355H459.56l-6.867-16.733H416.325l-6.719,16.733H382.122Z" transform="translate(2.362 0)" fill="#ff393f"/>
        <path id="Path_6" data-name="Path 6" d="M498.688,87.655h26.133v70.929h45.647v22.75H498.688Z" transform="translate(3.082 0)" fill="#ff393f"/>
        <path id="Path_7" data-name="Path 7" d="M154.49,236.57c9.289,0,14.93-4.822,14.93-12.183v-.264c0-8.036-5.641-12.315-15.07-12.315H142.091V236.57Zm-38.516-46.58h40.4c23.836,0,39.188,12.183,39.188,32.937v.256c0,22.083-17.11,33.729-40.54,33.729h-12.93v26.765H115.974Z" transform="translate(0.717 0)" fill="#ff393f"/>
        <path id="Path_8" data-name="Path 8" d="M280.392,237.1v-.264a24.275,24.275,0,0,0-6.749-17.744,24.582,24.582,0,0,0-17.509-7.553c-14.274,0-23.828,11.515-23.828,25.033v.264c0,13.518,9.836,25.289,24.11,25.289,14.414,0,23.977-11.507,23.977-25.025m-74.884,0v-.264c0-26.9,21.821-48.723,50.907-48.723s50.641,21.555,50.641,48.459v.264c0,26.9-21.821,48.723-50.922,48.723-29.086,0-50.626-21.562-50.626-48.459" transform="translate(1.27 0)" fill="#ff393f"/>
        <path id="Path_9" data-name="Path 9" d="M318.488,189.99h26.133v70.938h45.657v22.75h-71.79Z" transform="translate(1.968 0)" fill="#ff393f"/>
        <rect id="Rectangle_3" data-name="Rectangle 3" width="26.274" height="93.688" transform="translate(406.657 189.993)" fill="#ff393f"/>
        <path id="Path_10" data-name="Path 10" d="M473.132,212.746H444.865v-22.76h82.673v22.76H499.259v70.935H473.132Z" transform="translate(2.749 0)" fill="#ff393f"/>
        <rect id="Rectangle_4" data-name="Rectangle 4" width="26.266" height="93.688" transform="translate(544.955 189.993)" fill="#ff393f"/>
        <path id="Path_11" data-name="Path 11" d="M584.312,237.1v-.264a47.978,47.978,0,0,1,14.411-34.871A48.587,48.587,0,0,1,634,188.114c19.258,0,31.649,8.036,40,19.544l-19.672,15.125c-5.367-6.693-11.578-10.979-20.6-10.979-13.188,0-22.485,11.119-22.485,24.769v.264c0,14.046,9.3,25.025,22.485,25.025,9.828,0,15.633-4.55,21.274-11.367L674.672,264.4a49.675,49.675,0,0,1-90.36-27.3" transform="translate(3.611 0)" fill="#ff393f"/>
      </g>
    </g>
  </g>
</svg>
