<svg width="48" height="49" viewBox="0 0 48 49" fill="none" xmlns="http://www.w3.org/2000/svg">
<g filter="url(#filter0_di)">
<circle cx="23.898" cy="20.2522" r="19.898" fill="#303030"/>
<circle cx="23.898" cy="20.2522" r="19.398" stroke="url(#paint0_linear)"/>
</g>
<path d="M32.6531 14.7849C32.0019 15.0725 31.3081 15.2632 30.5847 15.3558C31.3289 14.9083 31.8969 14.2052 32.1639 13.3578C31.4701 13.7743 30.704 14.0686 29.8876 14.2328C29.2287 13.5264 28.2898 13.0889 27.2654 13.0889C25.278 13.0889 23.678 14.7133 23.678 16.7047C23.678 16.9912 23.7021 17.2667 23.7612 17.529C20.7768 17.3824 18.136 15.9421 16.362 13.7479C16.0523 14.289 15.8707 14.9083 15.8707 15.5751C15.8707 16.827 16.5109 17.9367 17.4652 18.5792C16.8884 18.5682 16.3226 18.3996 15.8433 18.134C15.8433 18.145 15.8433 18.1594 15.8433 18.1737C15.8433 19.9303 17.0876 21.3894 18.7193 21.7256C18.4271 21.806 18.1087 21.8446 17.7782 21.8446C17.5483 21.8446 17.3163 21.8314 17.0986 21.7829C17.5637 23.2144 18.8835 24.2669 20.4529 24.301C19.2315 25.2631 17.6808 25.8428 16.002 25.8428C15.7076 25.8428 15.4252 25.8296 15.1429 25.7932C16.733 26.8258 18.6176 27.4154 20.6498 27.4154C27.2556 27.4154 30.867 21.9052 30.867 17.1289C30.867 16.9692 30.8616 16.8149 30.8539 16.6617C31.5664 16.1525 32.165 15.5167 32.6531 14.7849Z" fill="#F6F6F6"/>
<defs>
<filter id="filter0_di" x="0" y="0.354248" width="47.7959" height="47.7959" filterUnits="userSpaceOnUse" color-interpolation-filters="sRGB">
<feFlood flood-opacity="0" result="BackgroundImageFix"/>
<feColorMatrix in="SourceAlpha" type="matrix" values="0 0 0 0 0 0 0 0 0 0 0 0 0 0 0 0 0 0 127 0"/>
<feOffset dy="4"/>
<feGaussianBlur stdDeviation="2"/>
<feColorMatrix type="matrix" values="0 0 0 0 0 0 0 0 0 0 0 0 0 0 0 0 0 0 0.25 0"/>
<feBlend mode="normal" in2="BackgroundImageFix" result="effect1_dropShadow"/>
<feBlend mode="normal" in="SourceGraphic" in2="effect1_dropShadow" result="shape"/>
<feColorMatrix in="SourceAlpha" type="matrix" values="0 0 0 0 0 0 0 0 0 0 0 0 0 0 0 0 0 0 127 0" result="hardAlpha"/>
<feOffset dy="4"/>
<feGaussianBlur stdDeviation="2"/>
<feComposite in2="hardAlpha" operator="arithmetic" k2="-1" k3="1"/>
<feColorMatrix type="matrix" values="0 0 0 0 0 0 0 0 0 0 0 0 0 0 0 0 0 0 0.25 0"/>
<feBlend mode="normal" in2="shape" result="effect2_innerShadow"/>
</filter>
<linearGradient id="paint0_linear" x1="23.898" y1="0.354248" x2="23.898" y2="40.1502" gradientUnits="userSpaceOnUse">
<stop stop-color="#ABC0E4"/>
<stop offset="1" stop-color="#C3A27C"/>
</linearGradient>
</defs>
</svg>
