<svg width="29" height="29" viewBox="0 0 29 29" fill="none" xmlns="http://www.w3.org/2000/svg">
<path d="M14.0288 17.9811C13.9117 18.098 13.9117 18.288 14.0288 18.4052C14.1461 18.5223 14.336 18.5223 14.4529 18.4052C14.5702 18.288 14.5702 18.098 14.4529 17.9811C14.336 17.8637 14.1461 17.8637 14.0288 17.9811Z" fill="#F6F6F6"/>
<path d="M21.7225 17.4599L19.4447 15.5231C19.4342 15.5142 19.423 15.5059 19.4114 15.4986C18.8139 15.1181 18.0466 15.2024 17.5456 15.7033L16.3037 16.9451C16.2176 17.0312 16.0893 17.0567 15.9768 17.0103C14.5745 16.4301 13.4224 15.5568 12.5527 14.4147C11.8895 13.5439 11.6504 12.8518 11.6189 12.7543C11.6152 12.7335 11.6092 12.7127 11.6007 12.6924C11.5542 12.5799 11.5797 12.4518 11.6659 12.3658L12.9077 11.1237C13.4087 10.6227 13.4929 9.85539 13.1124 9.25781C13.1094 9.25301 13.1062 9.24832 13.103 9.24363L11.458 6.95774C10.9405 6.15484 9.81317 6.03354 9.1366 6.70999L8.88792 6.95868C8.8878 6.95892 8.88757 6.95915 8.88733 6.95927L7.99946 7.84714C6.94072 8.90599 6.76751 10.497 7.49869 12.4486C8.12498 14.1202 9.37873 15.9498 11.029 17.6C12.7182 19.2892 14.5972 20.5662 16.3197 21.1956C18.0247 21.8185 19.8383 21.8953 21.1219 20.6115L21.9593 19.7743C22.6328 19.1007 22.5152 17.9808 21.7225 17.4599ZM19.073 15.9944L21.3488 17.9297C21.3592 17.9386 21.3704 17.9468 21.382 17.9542C21.8681 18.2637 21.9417 18.9434 21.5349 19.3501L21.4728 19.4123L17.5912 16.5061L17.9698 16.1275C18.2657 15.8315 18.7167 15.778 19.073 15.9944ZM10.9568 7.28741C10.9598 7.29222 10.963 7.29702 10.9663 7.30159L12.6105 9.58666C12.8339 9.94422 12.7822 10.4007 12.4835 10.6994L12.1165 11.0665L9.49042 7.20467L9.56085 7.13424C9.96927 6.72581 10.6484 6.80305 10.9568 7.28741ZM16.5255 20.6321C14.8834 20.032 13.082 18.8045 11.4532 17.1757C9.86216 15.5848 8.65728 13.8312 8.0604 12.2381C7.61237 11.0422 7.31176 9.38333 8.42371 8.2715L9.05855 7.63654L11.6847 11.4983L11.2418 11.9415C10.9898 12.193 10.9106 12.5652 11.0363 12.8966C11.131 13.2852 11.5668 14.0919 12.0064 14.6863C12.6533 15.561 13.8275 16.7704 15.7475 17.5647C16.0849 17.7043 16.4696 17.6276 16.7279 17.3695L17.1626 16.9347L21.0442 19.8409L20.6977 20.1873C19.5057 21.3794 17.7709 21.0871 16.5255 20.6321Z" fill="#F6F6F6"/>
<path d="M13.4658 17.2647C13.1489 16.9868 12.6008 16.5089 12.3121 16.2119C11.6043 15.4845 10.8616 14.6027 10.42 13.9656C10.3257 13.8294 10.1387 13.7955 10.0026 13.8899C9.86637 13.9843 9.8325 14.1712 9.92685 14.3074C10.4838 15.1108 11.302 16.0341 11.882 16.6302C12.1867 16.9438 12.7395 17.4259 13.0701 17.7157C13.1945 17.8247 13.384 17.8128 13.4936 17.688C13.6028 17.5635 13.5904 17.3739 13.4658 17.2647Z" fill="#F6F6F6"/>
<circle cx="14.5" cy="14.5" r="14.25" stroke="#F6F6F6" stroke-width="0.5"/>
<circle cx="14.5" cy="14.5" r="14.25" stroke="url(#paint0_linear)" stroke-width="0.5"/>
<circle cx="14.5" cy="14.5" r="14.25" stroke="#F6F6F6" stroke-width="0.5"/>
<defs>
<linearGradient id="paint0_linear" x1="14.5" y1="0" x2="14.5" y2="29" gradientUnits="userSpaceOnUse">
<stop stop-color="#C3A27C"/>
<stop offset="1" stop-color="#ABC0E4"/>
</linearGradient>
</defs>
</svg>
