<svg width="27" height="40" viewBox="0 0 27 40" fill="none" xmlns="http://www.w3.org/2000/svg">
                <path d="M23.5836 0C23.5836 0.225044 23.6478 0.442328 23.6798 0.659612C23.784 1.27266 23.8882 1.88571 24.0005 2.49876C24.1047 3.08853 24.2089 3.6783 24.3131 4.27584C24.4173 4.86561 24.5135 5.46314 24.6177 6.05291C24.7219 6.64268 24.8261 7.23245 24.9303 7.82998C25.0345 8.41199 25.1307 8.994 25.2349 9.57601C25.3392 10.1658 25.4434 10.7633 25.5476 11.3531C25.6518 11.9429 25.756 12.5404 25.8602 13.1302C25.9644 13.7199 26.0686 14.3175 26.1648 14.9072C26.269 15.5125 26.3732 16.11 26.4774 16.7153C26.5816 17.3051 26.6859 17.9026 26.7901 18.4924C26.8622 18.8959 26.9344 19.3072 26.9985 19.7107C27.0065 19.7728 26.9824 19.8194 26.9344 19.8504C26.6458 20.0522 26.3492 20.2462 26.0686 20.4557C25.0907 21.1852 24.1929 21.9922 23.3432 22.8614C21.2109 25.042 19.4874 27.5019 18.1327 30.2025C17.1067 32.2511 16.3291 34.3852 15.776 36.5968C15.5515 37.4815 15.3591 38.3739 15.2149 39.2741C15.1988 39.3749 15.1828 39.4681 15.1267 39.5689C15.0866 39.5767 15.0385 39.5845 14.9984 39.5845C14.5736 39.5845 14.1487 39.5845 13.7239 39.5845C13.6918 39.5845 13.6517 39.5767 13.6277 39.5689C13.6116 39.5612 13.5876 39.5379 13.5876 39.5224C13.5796 39.3982 13.5716 39.2818 13.5716 39.1577C13.5716 34.9827 13.5716 30.8155 13.5716 26.6406C13.5716 24.5065 13.5716 22.3725 13.5716 20.2307C13.5716 20.122 13.5716 20.0056 13.5796 19.897C13.5796 19.8582 13.6277 19.8116 13.6678 19.8039C13.7239 19.7961 13.78 19.7806 13.8361 19.7728C14.7179 19.6642 15.4473 19.0589 15.7519 18.3217C16.3211 16.9404 15.4393 15.4427 13.9964 15.14C12.802 14.8917 11.4954 15.5746 11.1427 16.824C10.806 18.019 11.4874 19.2917 12.7539 19.6875C12.8822 19.7263 13.0185 19.7651 13.1547 19.7728C13.2108 19.7728 13.267 19.7884 13.3231 19.8039C13.3471 19.8116 13.3792 19.8427 13.3872 19.8737C13.4032 19.9048 13.4032 19.9358 13.4032 19.9746C13.4032 20.0755 13.4032 20.1764 13.4032 20.2772C13.4032 26.5552 13.4032 32.8254 13.4032 39.1033C13.4032 39.2353 13.3952 39.3672 13.3952 39.5069C13.3952 39.5457 13.3471 39.5922 13.307 39.5922C13.2509 39.5922 13.1948 39.6 13.1387 39.6C12.786 39.6 12.4253 39.6 12.0726 39.6C12.0164 39.6 11.9603 39.6 11.9042 39.5922C11.8561 39.5922 11.816 39.5534 11.808 39.5146C11.7439 39.1965 11.6798 38.8783 11.6156 38.5679C11.3271 37.2021 10.9423 35.8674 10.4934 34.5481C9.8441 32.6314 9.04249 30.7767 8.08056 28.9919C7.23086 27.4243 6.26091 25.9266 5.12263 24.5298C4.04848 23.2028 2.85408 21.9922 1.49937 20.9213C1.10658 20.6109 0.705778 20.316 0.296959 20.0289C0.240846 19.9901 0.184734 19.9513 0.128621 19.9125C0.00838006 19.8504 -0.0156681 19.7495 0.00838006 19.6331C0.0484604 19.4236 0.0805248 19.2141 0.112589 19.0046C0.19275 18.5079 0.280926 18.019 0.361087 17.5224C0.465296 16.9326 0.561489 16.3351 0.665698 15.7453C0.745858 15.2719 0.826019 14.7986 0.90618 14.333C1.01039 13.7044 1.12261 13.0836 1.22682 12.455C1.30698 11.9817 1.38714 11.5083 1.4673 11.0427C1.54747 10.5848 1.61961 10.1192 1.69977 9.66137C1.77993 9.18024 1.86811 8.69911 1.94827 8.21023C2.05248 7.59717 2.15669 6.98412 2.2609 6.37107C2.34106 5.91322 2.4132 5.44762 2.49336 4.98977C2.57352 4.49312 2.6617 4.00423 2.74186 3.50758C2.84607 2.90229 2.94226 2.297 3.04647 1.69947C3.12663 1.21834 3.21481 0.737213 3.29497 0.248324C3.311 0.170723 3.311 0.0931217 3.31902 0.0155203C10.0685 5.89739e-08 16.8261 0 23.5836 0Z" fill="#C3A27C"/>
                </svg>