<svg width="48" height="49" viewBox="0 0 48 49" fill="none" xmlns="http://www.w3.org/2000/svg">
<g filter="url(#filter0_di)">
<circle cx="23.898" cy="20.2522" r="19.898" fill="#303030"/>
<circle cx="23.898" cy="20.2522" r="19.398" stroke="url(#paint0_linear)"/>
</g>
<path d="M17.3803 26.315C17.4006 26.3336 17.4226 26.3502 17.4462 26.3644C19.1214 28.1453 21.458 29.155 23.903 29.1542C26.348 29.1534 28.684 28.1423 30.358 26.3603C30.3802 26.3475 30.401 26.3326 30.4204 26.3159C30.435 26.2954 30.4478 26.2736 30.4586 26.2509C33.5815 22.8633 33.5815 17.646 30.4586 14.2585L30.4569 14.2576C30.446 14.2349 30.4332 14.2131 30.4186 14.1926C30.3983 14.1737 30.3761 14.157 30.3523 14.1428C28.6779 12.3633 26.3429 11.3542 23.8995 11.3542C21.4561 11.3542 19.1211 12.3633 17.4467 14.1428C17.423 14.157 17.4007 14.1737 17.3805 14.1926C17.3659 14.2131 17.353 14.2349 17.3422 14.2576C14.2193 17.6452 14.2193 22.8624 17.3422 26.25C17.353 26.2727 17.3657 26.2945 17.3803 26.315ZM26.3262 27.8846C27.0102 27.0584 27.5251 26.1058 27.8414 25.0809V25.0796C28.4005 25.3415 28.928 25.666 29.4137 26.047C28.5369 26.8855 27.4812 27.5138 26.3262 27.8846ZM30.0279 25.4005C29.4356 24.9254 28.7858 24.5269 28.0938 24.2145C28.38 23.0637 28.5363 21.8844 28.5597 20.6988H31.8863C31.7938 22.4262 31.1414 24.0766 30.0279 25.4005ZM31.8863 19.8088H28.5597C28.5363 18.6232 28.38 17.4439 28.0938 16.2931C28.7857 15.981 29.4356 15.5828 30.0279 15.1081C31.1412 16.4317 31.7935 18.0817 31.8863 19.8088ZM29.4137 14.4592C28.928 14.8402 28.4006 15.1648 27.8415 15.4267C27.5253 14.4013 27.0104 13.4482 26.3262 12.6217C27.4812 12.9925 28.5369 13.6208 29.4137 14.4592ZM24.3436 12.3057C25.4343 12.5914 26.3991 13.9029 27.007 15.7595C26.1482 16.0556 25.2512 16.2263 24.3436 16.2664V12.3057ZM24.3436 17.1569C25.3338 17.1198 26.3135 16.94 27.2522 16.6229C27.5047 17.6669 27.6448 18.735 27.6701 19.8088H24.3436V17.1569ZM24.3436 20.6988H27.6701C27.6447 21.7724 27.5047 22.8401 27.2522 23.8839C26.3134 23.567 25.3338 23.3875 24.3436 23.3507V20.6988ZM24.3436 24.2412C25.2512 24.2814 26.1482 24.4523 27.007 24.7485C26.3991 26.6051 25.4343 27.9166 24.3436 28.2023V24.2412ZM18.3834 26.0458C18.8693 25.6657 19.3968 25.342 19.9557 25.081V25.0796C20.272 26.1045 20.7869 27.0571 21.471 27.8833C20.316 27.5125 19.2602 26.8842 18.3834 26.0458ZM23.4536 28.2019C22.3628 27.9162 21.3981 26.6047 20.7901 24.7481C21.6489 24.452 22.546 24.2813 23.4536 24.2412V28.2019ZM23.4536 23.3507C22.4634 23.3878 21.4837 23.5676 20.5449 23.8847C20.2925 22.8407 20.1524 21.7727 20.127 20.6988H23.4536V23.3507ZM23.4536 19.8088H20.127C20.1524 18.7353 20.2925 17.6675 20.5449 16.6238C21.4837 16.9406 22.4634 17.1202 23.4536 17.1569V19.8088ZM23.4536 12.3053V16.2664C22.546 16.2262 21.6489 16.0553 20.7901 15.7591C21.398 13.9025 22.3628 12.591 23.4536 12.3053ZM21.471 12.6204C20.7866 13.4473 20.2717 14.4009 19.9557 15.4267V15.4253C19.3967 15.1634 18.8692 14.8389 18.3835 14.4578C19.2602 13.6195 20.316 12.9912 21.471 12.6204ZM17.7693 15.1071C18.3615 15.5822 19.0114 15.9807 19.7034 16.2931C19.4172 17.4439 19.2609 18.6231 19.2374 19.8087H15.9109C16.0034 18.0813 16.6558 16.431 17.7693 15.1071ZM19.2374 20.6988C19.2609 21.8844 19.4172 23.0637 19.7034 24.2145C19.0114 24.5266 18.3616 24.9248 17.7693 25.3996C16.6559 24.076 16.0036 22.4259 15.9109 20.6988H19.2374V20.6988Z" fill="#F6F6F6"/>
<defs>
<filter id="filter0_di" x="0" y="0.354248" width="47.7959" height="47.7959" filterUnits="userSpaceOnUse" color-interpolation-filters="sRGB">
<feFlood flood-opacity="0" result="BackgroundImageFix"/>
<feColorMatrix in="SourceAlpha" type="matrix" values="0 0 0 0 0 0 0 0 0 0 0 0 0 0 0 0 0 0 127 0"/>
<feOffset dy="4"/>
<feGaussianBlur stdDeviation="2"/>
<feColorMatrix type="matrix" values="0 0 0 0 0 0 0 0 0 0 0 0 0 0 0 0 0 0 0.25 0"/>
<feBlend mode="normal" in2="BackgroundImageFix" result="effect1_dropShadow"/>
<feBlend mode="normal" in="SourceGraphic" in2="effect1_dropShadow" result="shape"/>
<feColorMatrix in="SourceAlpha" type="matrix" values="0 0 0 0 0 0 0 0 0 0 0 0 0 0 0 0 0 0 127 0" result="hardAlpha"/>
<feOffset dy="4"/>
<feGaussianBlur stdDeviation="2"/>
<feComposite in2="hardAlpha" operator="arithmetic" k2="-1" k3="1"/>
<feColorMatrix type="matrix" values="0 0 0 0 0 0 0 0 0 0 0 0 0 0 0 0 0 0 0.25 0"/>
<feBlend mode="normal" in2="shape" result="effect2_innerShadow"/>
</filter>
<linearGradient id="paint0_linear" x1="23.898" y1="0.354248" x2="23.898" y2="40.1502" gradientUnits="userSpaceOnUse">
<stop stop-color="#ABC0E4"/>
<stop offset="1" stop-color="#C3A27C"/>
</linearGradient>
</defs>
</svg>
